<svg id="Layer_1" data-name="Layer 1" xmlns="http://www.w3.org/2000/svg" viewBox="0 0 30 21"><defs><style>.cls-1{fill:#57b947;}</style></defs><path class="cls-1" d="M5,12.11c2.16-2,4.21-4.06,6.29-6.1l3.08-3L16,1.42c.25-.24.85-.6.71-1,0,0,0-.06-.07-.06a.19.19,0,0,0-.19,0,.08.08,0,0,0,0,0V.49s.07.06.08,0c0,.14-.53.49-.66.62s-.48.46-.71.7L13.63,3.3,10.71,6.18C8.77,8.1,6.79,10,4.92,12a.09.09,0,0,0,.12.13Z"/><path class="cls-1" d="M13.74,19.58A35.62,35.62,0,0,0,17,16.19l3.17-3.45,3.09-3.37.83-.9a1.15,1.15,0,0,0,.3-.45c0-.21,0-.37-.26-.33,0,0-.05,0,0,.08.15.29-.94,1.25-1.13,1.46-.45.49-.9,1-1.36,1.48l-2.71,3c-.87,1-1.76,1.91-2.63,2.88a31.59,31.59,0,0,0-2.59,2.95c0,.06,0,.12.11.08Z"/><path class="cls-1" d="M4.56,12.39A59.19,59.19,0,0,1,10.12,17a19.17,19.17,0,0,0,2.43,2.25c.1.07,1.37,1,1.25.25a.12.12,0,0,0-.23,0,11.35,11.35,0,0,1-1.22-.75,12.22,12.22,0,0,1-1.2-1.07c-.67-.67-1.33-1.36-2.05-2A36.5,36.5,0,0,0,4.63,12.3s-.13,0-.07.09Z"/><path class="cls-1" d="M16.37.6c.45,0,1,.71,1.33,1l1,.92c.62.59,1.24,1.19,1.85,1.81q1.86,1.88,3.57,3.89c.13.15.35-.07.22-.22-1.28-1.5-2.63-2.93-4-4.31-.69-.68-1.4-1.33-2.12-2C17.71,1.31,17,.47,16.37.44a.08.08,0,0,0,0,.16Z"/><path class="cls-1" d="M16.17,2.45a3.74,3.74,0,0,1,.6-1.09C17.06,1,17.7.61,18.1,1c0,0-.07,0-.09,0a.18.18,0,0,0,0,.2.16.16,0,0,0,.17.07l.07,0a.15.15,0,0,0,.11-.11C18.5.46,17.5.52,17.11.75a1.8,1.8,0,0,0-1,1.7s0,0,0,0Z"/><path class="cls-1" d="M17.62,3.27l-.1,0c-.12,0-.12.18,0,.15l.1,0a.06.06,0,0,0,0-.11Z"/><path class="cls-1" d="M17.65,4.13A12.11,12.11,0,0,0,18.42,3,1.7,1.7,0,0,1,19,2.51c.3-.13.45.07.72.11.06,0,.1,0,.1-.07.05-.6-.91-.36-1.17-.16a2.6,2.6,0,0,0-1,1.72,0,0,0,0,0,0,0Z"/><path class="cls-1" d="M19.51,4.82a2.71,2.71,0,0,1,.44-1,.73.73,0,0,1,1-.14c.14.13.34-.07.21-.2a1,1,0,0,0-1.23,0,1.91,1.91,0,0,0-.64,1.37c0,.12.17.13.2,0Z"/><path class="cls-1" d="M21,6.47c.11-.13.06-.3.09-.45a1.12,1.12,0,0,1,.27-.57,1.1,1.1,0,0,1,1.2-.27c.2.07.29-.25.09-.31a1.44,1.44,0,0,0-1.49.37c-.22.24-.61,1-.22,1.25,0,0,.05,0,.06,0Z"/><path class="cls-1" d="M22.36,7.85A2.29,2.29,0,0,1,22.89,7a.57.57,0,0,1,.87.11c.09.18.37,0,.27-.16A.85.85,0,0,0,23,6.58a1.52,1.52,0,0,0-.83,1.18c0,.12.16.22.22.09Z"/><path class="cls-1" d="M16,2.42c.09.27.4.2.56,0s.21-.57.44-.81a1.34,1.34,0,0,1,1.17-.38l0-.29A1.83,1.83,0,0,0,16.53,2l.2.09A2,2,0,0,1,18.06.89a.05.05,0,0,0,0-.1A1.73,1.73,0,0,0,16.51,2a.11.11,0,0,0,.21.08,1.47,1.47,0,0,1,1.52-.87c.17,0,.21-.27,0-.3a1.57,1.57,0,0,0-1.22.31,1.38,1.38,0,0,0-.36.4,1,1,0,0,0-.12.23,2.17,2.17,0,0,0-.07.24c0,.2-.16.29-.42.26,0,0-.08,0-.06,0Z"/><path class="cls-1" d="M18,3.7a.27.27,0,0,0,.19.48s.08,0,.09-.09a1.58,1.58,0,0,1,1.34-1.38.15.15,0,0,0,0-.3,1.29,1.29,0,0,0-1.28.29,2.12,2.12,0,0,0-.57,1.38c0,.15.22.18.26,0,.17-.68.59-1.82,1.51-1.39a.13.13,0,0,0,.13-.22,1,1,0,0,0-1.21.1,2.42,2.42,0,0,0-.69,1.44l.26,0c0-.79.59-1.75,1.51-1.37v-.3A1.78,1.78,0,0,0,18.1,4.09L18.19,4l-.11-.23A.06.06,0,0,0,18,3.7Z"/><path class="cls-1" d="M19.47,5a5.09,5.09,0,0,0,.62-.69L20.3,4c.12-.13.71-.5.66,0l.28-.07a.94.94,0,0,0-1.35-.29,2.14,2.14,0,0,0-.75,1.78l.3,0A1.23,1.23,0,0,1,20.74,4c.18,0,.22-.28,0-.31a1.5,1.5,0,0,0-1.64,1.77c0,.18.3.12.31,0A2,2,0,0,1,19.87,4a.73.73,0,0,1,1.12,0c.07.13.26.06.27-.08a.53.53,0,0,0-.77-.46A1.32,1.32,0,0,0,20,4a5.14,5.14,0,0,0-.61.93s0,.07.06,0Z"/><path class="cls-1" d="M20.55,6.6c.25-.26.34-.63.57-.91a.91.91,0,0,1,1.2-.27l.13-.31a1.42,1.42,0,0,0-1.87,1.54.17.17,0,0,0,.33,0,1.2,1.2,0,0,1,1.45-1.1.18.18,0,0,0,.14-.33,1,1,0,0,0-1.12,0,2.34,2.34,0,0,0-.77,1.23l.31.08a1.29,1.29,0,0,1,.61-.89,2,2,0,0,1,1-.18.11.11,0,0,0,.06-.2,1.24,1.24,0,0,0-1.23.1,1.59,1.59,0,0,0-.76,1.09.16.16,0,0,0,.31.08c.2-.56.66-1.53,1.4-1l.14-.33a1.57,1.57,0,0,0-1.88,1.45l.33-.05a1.05,1.05,0,0,1,1.45-1.16.17.17,0,0,0,.13-.31c-.91-.57-2,.49-2,1.43,0,0,.05.07.08,0Z"/><path class="cls-1" d="M22.3,8.29c.2-.36.21-.79.49-1.11a.68.68,0,0,1,1.05-.09c.12.16.39,0,.28-.22a.93.93,0,0,0-1.3-.2,2.06,2.06,0,0,0-.69,1.65c0,.17.28.21.3,0a2.85,2.85,0,0,1,.3-1.08.68.68,0,0,1,1-.23L24,6.78A1.5,1.5,0,0,0,21.9,8c0,.16.21.2.29.08.24-.37.48-.74.7-1.13l-.2.08a.19.19,0,0,1,.15.2c0,.12.19.1.23,0a.41.41,0,0,0-.29-.53.18.18,0,0,0-.19.08c-.23.37-.45.76-.67,1.14l.29.08a1.14,1.14,0,0,1,1.58-.95c.17.07.35-.12.21-.27a.94.94,0,0,0-1.25,0,2.05,2.05,0,0,0-.62,1.55h.31a2.34,2.34,0,0,1,.33-1.19c.24-.3.79-.46,1-.07l.28-.22a1,1,0,0,0-1.28-.12,1.78,1.78,0,0,0-.69,1.52.1.1,0,0,0,.18,0Z"/><path class="cls-1" d="M21.69,8a.47.47,0,0,0-.08.62.13.13,0,0,0,.17.05c.17-.1.37-.24.35-.46a.33.33,0,0,0-.41-.29.2.2,0,0,0-.14.28.16.16,0,0,0,.13.08.15.15,0,0,0,.09,0s.09-.05,0,0h0c0,.09-.1.15-.18.2l.15,0a.25.25,0,0,1,0-.33c.1-.09-.05-.23-.15-.15Z"/><path class="cls-1" d="M20.47,6.36a.38.38,0,0,0-.52.27.34.34,0,0,0,.37.45.44.44,0,0,0,.16-.81.31.31,0,0,0-.4.1.16.16,0,0,0,.21.21h0s.05,0,.05,0v0c0,.06-.05.16-.12.17s0-.3.11-.25.2-.15.09-.2Z"/><path class="cls-1" d="M18.7,5.11c.22.08.25-.38-.06-.33s-.37.38-.3.61A.46.46,0,0,0,19,5.7a.59.59,0,0,0,.31-.29c0-.12.08-.35,0-.44-.3-.23-.78.25-.54.54a.09.09,0,0,0,.14,0c0-.07,0-.13.1-.17a.23.23,0,0,1,.16-.06L19,5.18c.08.18-.21.38-.35.25a.29.29,0,0,1-.08-.23.27.27,0,0,1,0-.12s0,0,0,0,.09-.06.07-.06a.07.07,0,0,0,0,.13Z"/><path class="cls-1" d="M18.72,5.28c-.14.14,0,.33.2.32a.24.24,0,0,0,.21-.19.43.43,0,0,0-.08-.33.13.13,0,0,0-.23.13.56.56,0,0,1,0,.12s0,0,0,0h0s0,0,0,0h0s0,0,0,.06a.11.11,0,0,0-.15-.15Z"/><path class="cls-1" d="M17.58,4l-.15-.38a.1.1,0,0,0-.15-.06.53.53,0,0,0-.11.72.49.49,0,0,0,.67.12.44.44,0,0,0,.07-.68.41.41,0,0,0-.66.05.4.4,0,0,0,.26.61.11.11,0,0,0,0-.2.22.22,0,0,1-.07-.3c.12-.15.34.07.3.21a.28.28,0,0,1-.37.13c-.19-.11-.13-.36,0-.5l-.16,0c.07.11.13.24.2.35s.16,0,.13,0Z"/><path class="cls-1" d="M15.89,1.94l-.35.4a.09.09,0,0,0,0,.11.48.48,0,0,0,.64.14.9.9,0,0,0,.38-.81.12.12,0,0,0-.24,0c-.06.19,0,.4-.17.56s-.34.21-.45,0v.11L16,2.06c.07-.08,0-.19-.11-.12Z"/><path class="cls-1" d="M14.16,19.76a28.38,28.38,0,0,0,2.49-2.65l2.5-2.81c.8-.91,1.6-1.82,2.41-2.72S23.27,9.73,24,8.75c.1-.13-.07-.31-.19-.18-.88.88-1.67,1.87-2.5,2.8l-2.48,2.81c-.81.91-1.61,1.83-2.41,2.74a27.23,27.23,0,0,0-2.34,2.81s0,.05,0,0Z"/><path class="cls-1" d="M13.83,20.33a34.59,34.59,0,0,0,2.83-2.85l2.76-2.91c1.83-2,3.63-3.93,5.42-5.92.14-.16-.09-.39-.23-.23-1.81,2-3.64,4-5.48,6-.9,1-1.82,2-2.73,2.93s-1.87,1.86-2.66,2.89c0,0,0,.1.09.07Z"/><path class="cls-1" d="M14.18,20.58c2.33-2.24,4.47-4.71,6.65-7.09,1.1-1.2,2.19-2.4,3.29-3.59.37-.42,1.76-1.72.61-2.14a.17.17,0,0,0-.13.31c.69.34-.73,1.6-1,1.92l-1.33,1.47-2.76,3c-1.8,2-3.69,3.93-5.39,6a.06.06,0,0,0,.08.08Z"/><path class="cls-1" d="M17.35.71a6.41,6.41,0,0,1,1.56,1.47L20.49,4c1.06,1.25,2.13,2.48,3.19,3.71.1.11.26,0,.17-.16C22.72,6.31,21.6,5,20.47,3.75L18.85,1.92A5.41,5.41,0,0,0,17.38.65s-.07,0,0,.06Z"/><path class="cls-1" d="M18,1a21.06,21.06,0,0,1,3.3,3.5,21.48,21.48,0,0,0,1.57,1.73A9.29,9.29,0,0,1,24.47,8a.12.12,0,0,0,.21-.09c-.15-.7-.84-1.19-1.35-1.63a17.78,17.78,0,0,1-1.79-1.89A17.92,17.92,0,0,0,18,.9S18,.93,18,1Z"/><path class="cls-1" d="M17.79.1c.72.58,1.5,1.06,2.2,1.66a19.75,19.75,0,0,1,1.83,1.83,27.5,27.5,0,0,1,1.75,2.13c.38.5,1.95,2.19,1.24,2.73a.12.12,0,0,0,.09.22c.93-.13.26-1.3,0-1.69-.63-.9-1.29-1.79-2-2.63A22.76,22.76,0,0,0,20.58,2,11.37,11.37,0,0,0,17.86,0c-.05,0-.13.05-.07.1Z"/><path class="cls-1" d="M16.77.69a1.29,1.29,0,0,1,.95-.45,0,0,0,0,0,0-.09,1.11,1.11,0,0,0-1,.5s0,.08.06,0Z"/><path class="cls-1" d="M17.36.36c.22.11.45.23.68.32a0,0,0,1,0,0-.06,6,6,0,0,0-.66-.35c-.06,0-.11.06-.05.09Z"/><path class="cls-1" d="M18.14.67c.52.52,1,1.06,1.57,1.56a0,0,0,0,0,0,0c-.5-.54-1-1-1.57-1.56,0,0-.07,0,0,0Z"/><path class="cls-1" d="M18.32.94c.85.76,1.69,1.52,2.49,2.32s1.52,1.68,2.29,2.52c.07.07.2,0,.14-.11A26.88,26.88,0,0,0,18.4.86s-.13,0-.08.08Z"/><path class="cls-1" d="M20.69,3.11a12.34,12.34,0,0,0,1.79,1.75,5.48,5.48,0,0,1,1.64,2.29s.09,0,.08,0C24,5.31,21.78,4.38,20.74,3.06c0,0-.07,0,0,0Z"/><path class="cls-1" d="M4.55,12.49l.07-.09,0-.05,0,0a.25.25,0,0,0,.1-.16,0,0,0,0,0-.06,0c-.06,0-.13.12-.1.19v0a2.12,2.12,0,0,1-.12.2s0,0,0,0Z"/><path class="cls-1" d="M4.8,12.41a3.59,3.59,0,0,0,.32-.36s0-.06,0,0-.24.22-.36.33,0,.12.08.07Z"/><path class="cls-1" d="M4.89,12.21l.1,0a0,0,0,0,0,0-.06l-.1,0a.06.06,0,1,0,0,.12Z"/><path class="cls-1" d="M4.81,12.23l-.1.2a.06.06,0,0,0,0,.07l0,0a.05.05,0,0,0,0,0l.1-.2c0-.07-.07-.13-.1-.06Z"/><path class="cls-1" d="M4.7,12.28l.12.33s.06,0,0,0l-.1-.34s-.08,0-.07,0Z"/><path class="cls-1" d="M5,12.94s0,0,0,0Z"/><path class="cls-1" d="M5,12.94c-.18-.32,0,.1.11.2a6.2,6.2,0,0,0,.48.56,4.13,4.13,0,0,0,1.09.81s0,0,0,0a13,13,0,0,1-1.85-1.79s0,0,0,0L5,13s0,0,0,0Z"/><path class="cls-1" d="M4.67,12.69a15.11,15.11,0,0,0,3.4,2.88c.58.37,1.18.72,1.73,1.14s1,1,1.55,1.5c.07.06.2,0,.16-.09a3.52,3.52,0,0,0-1.2-1.37,16.87,16.87,0,0,0-1.67-1.13,18.59,18.59,0,0,1-3.9-3s-.11,0-.07.07Z"/><path class="cls-1" d="M5,12.82A12,12,0,0,0,8.29,16c.66.5,1.33,1,2,1.54A24.49,24.49,0,0,1,12,19.32a.1.1,0,0,0,.15-.12,11.58,11.58,0,0,0-3.33-3.13,23,23,0,0,1-3.76-3.28s-.05,0,0,0Z"/><path class="cls-1" d="M5,13.47c1.32,1.23,2.69,2.41,4.05,3.59l2,1.73a11.29,11.29,0,0,0,2,1.62c.07,0,.16,0,.11-.1a11,11,0,0,0-1.81-1.65L9.25,16.87C7.88,15.69,6.5,14.53,5.08,13.4c0,0-.11,0-.07.07Z"/><path class="cls-1" d="M5.22,14.15c2.42,2.16,4.94,4.25,7.48,6.27.1.08.25-.06.15-.15-2.48-2.11-5-4.18-7.61-6.15,0,0,0,0,0,0Z"/><path class="cls-1" d="M10.64,18.35c.94.69,1.86,1.44,2.85,2,0,0,.08,0,0,0-.89-.75-1.9-1.38-2.85-2.06,0,0-.07,0,0,.06Z"/><path class="cls-1" d="M5.17,12.42q2.08,1.89,4.22,3.74L11.49,18a13.55,13.55,0,0,0,2.08,1.7c.09.06.17-.06.11-.14a14.54,14.54,0,0,0-2.06-1.85l-2.11-1.8q-2.12-1.8-4.27-3.55a.05.05,0,0,0-.07.08Z"/><path class="cls-1" d="M5,12.47c1.37,1.44,2.8,2.81,4.26,4.16.71.67,1.43,1.33,2.15,2l1.13,1a4.58,4.58,0,0,0,1,.83c.08,0,.18,0,.13-.13a4.56,4.56,0,0,0-1-.91l-1.14-1c-.74-.65-1.46-1.3-2.18-2-1.47-1.33-2.91-2.7-4.38-4a0,0,0,0,0-.06.06Z"/><path class="cls-1" d="M12.32,19.9a1.38,1.38,0,0,0,.93.42s0,0,0,0a1.66,1.66,0,0,1-.87-.45c-.05,0-.12,0-.07.07Z"/><path class="cls-1" d="M12.56,20.21l.56.45s.07,0,0,0l-.56-.44s-.06,0,0,0Z"/><path class="cls-1" d="M13.16,20.66l.1-.12s0,0,0,0l-.12.1s0,.06,0,0Z"/><path class="cls-1" d="M12.75,20.1a2,2,0,0,0,.69.86s.07,0,.08,0a.64.64,0,0,0-.14-.53s-.05,0,0,0a.56.56,0,0,1,.07.47l.08,0a2,2,0,0,1-.65-.81s-.11,0-.09,0Z"/><path class="cls-1" d="M13.12,19.86a4.19,4.19,0,0,0,.23.68s.08,0,.07,0a4,4,0,0,0-.24-.66s-.07,0-.06,0Z"/><path class="cls-1" d="M12.79,20.46l.64.26s.08,0,.09,0a.82.82,0,0,0,0-.49.09.09,0,0,0-.17,0c-.06.17.17.27.28.16a.35.35,0,0,0,0-.3,2.54,2.54,0,0,0-.19-.65,0,0,0,0,0-.08,0,1.45,1.45,0,0,0,0,.36c0,.12.12.34.09.46h-.17a.55.55,0,0,1,0,.4l.09-.05c-.22-.08-.44-.13-.65-.21a0,0,0,0,0,0,.09Z"/><path class="cls-1" d="M13.29,19.3a.32.32,0,0,0,0,.14.06.06,0,0,0,.1,0,.22.22,0,0,0,0-.14.07.07,0,0,0-.14,0Z"/><path class="cls-1" d="M13.57,20.36a8.32,8.32,0,0,0,.73-1,.06.06,0,0,0-.09-.07,8.57,8.57,0,0,0-.79,1c-.07.09.08.18.15.09Z"/><path class="cls-1" d="M13.68,20.51a7.51,7.51,0,0,0,.66-.83c.05-.08-.07-.16-.14-.1a4.08,4.08,0,0,0-.36.36l-.33.4c-.1.12.07.29.17.17Z"/><path class="cls-1" d="M13.64,20.5a3.15,3.15,0,0,1-.22.29c-.08.11.06.27.16.16l.47-.53a3.39,3.39,0,0,0,.41-.51c0-.07-.05-.19-.13-.13a7.29,7.29,0,0,0-.91,1l.19.11c0-.11.09-.23.14-.34a.06.06,0,0,0-.11-.06Z"/><path class="cls-1" d="M13.89,20.83A10.4,10.4,0,0,0,15,19.45a.07.07,0,0,0-.11-.08,9,9,0,0,0-1.11,1.36.08.08,0,0,0,.12.1Z"/><path class="cls-1" d="M13.83,21c.27-.4.57-.8.8-1.22,0,0,0-.08-.07,0-.28.39-.53.82-.78,1.23,0,0,0,.06.05,0Z"/><path class="cls-1" d="M16.83.89l.56-.23s0,0,0,0c-.19.06-.37.14-.56.22,0,0,0,.05,0,0Z"/><path class="cls-1" d="M22.14,4.51a18.81,18.81,0,0,1,2.8,2.77c.07.08.21,0,.15-.11a10.34,10.34,0,0,0-2.92-2.71s-.06,0,0,0Z"/><path class="cls-1" d="M22.7,4.6c.45.48.9,1,1.33,1.48s.78,1.08,1.25,1.54c.07.07.18,0,.14-.11A8.18,8.18,0,0,0,24.23,6a18.54,18.54,0,0,0-1.47-1.47s-.1,0-.06.06Z"/><path class="cls-1" d="M23.74,5.88a3.24,3.24,0,0,0,.84.89,2.42,2.42,0,0,1,.52.54.74.74,0,0,1-.37,1.15c-.08,0-.06.13,0,.14a.75.75,0,0,0,.69-1c-.23-.81-1.18-1.08-1.61-1.74,0,0-.13,0-.09,0Z"/><path class="cls-1" d="M24.91,8a2,2,0,0,1-.18.42c-.07.12-.17.23-.24.36s0,.12.08.08A1.47,1.47,0,0,0,25.05,8c0-.09-.12-.13-.14,0Z"/><path class="cls-1" d="M21.74,8.63c.16-.26-.24-.44-.45-.32a.44.44,0,0,0-.16.47.7.7,0,0,0,.08.29.24.24,0,0,0,.22.09A.57.57,0,0,0,22,8.47c0-.16-.16-.37-.34-.36a.41.41,0,0,0-.37.36c0,.11.14.14.21.08a.56.56,0,0,1,.24-.13l-.12,0a.27.27,0,0,1-.25.47l.1.1c0-.11-.12-.28-.06-.4s.2-.08.19,0a.08.08,0,0,0,.14.06Z"/><path class="cls-1" d="M20.09,6.92a.54.54,0,0,0,0-.48.1.1,0,0,0-.1,0,.67.67,0,0,0-.49.64.44.44,0,1,0,.83-.19c-.12-.23-.5-.35-.64-.09a.08.08,0,0,0,.07.12.64.64,0,0,1,.28.06.18.18,0,0,1-.12.33c-.18,0-.24-.22-.21-.36A.62.62,0,0,1,20,6.57h-.11a.31.31,0,0,1,.07.32c0,.06.07.1.09,0Z"/><path class="cls-1" d="M19.91,6.88a1,1,0,0,0-.13.55.06.06,0,0,0,.07.06.6.6,0,0,0,.52-.36c.08-.18.11-.48-.08-.6s-.13,0-.12.09a.67.67,0,0,1,0,.42.44.44,0,0,1-.35.32l.07.07a.86.86,0,0,1,.09-.5.06.06,0,0,0-.1,0Z"/><path class="cls-1" d="M21.61,8.54a.63.63,0,0,0-.37.48.06.06,0,0,0,0,.08A.43.43,0,0,0,21.79,9a.37.37,0,0,0,0-.52.06.06,0,0,0-.09.07c.11.22-.11.57-.37.47l.05.07a.52.52,0,0,1,.29-.4c.07,0,0-.13-.06-.1Z"/><path class="cls-1" d="M18.47,5.47a.13.13,0,0,0,.23,0c.06-.16-.14-.24-.27-.2a.51.51,0,0,0-.15.82.55.55,0,0,0,.85-.19c.14-.33-.16-.85-.55-.67,0,0,0,.1,0,.13a.59.59,0,0,1,.29.31.24.24,0,0,1-.18.31.25.25,0,0,1-.32-.17.28.28,0,0,1,0-.22.24.24,0,0,1,.06-.09l.11-.06s-.11,0-.09,0Z"/><path class="cls-1" d="M17.41,4A.38.38,0,0,0,17,4a.84.84,0,0,0-.23.57.15.15,0,0,0,.06.1.56.56,0,0,0,.65,0c.15-.12.34-.42.16-.6a.1.1,0,0,0-.16,0,.75.75,0,0,1,0,.21.35.35,0,0,1-.12.17.33.33,0,0,1-.4,0l.05.09c0-.17.11-.6.38-.46.07,0,.15-.06.09-.11Z"/><path class="cls-1" d="M15.83,2.29a.51.51,0,0,0-.44.85.51.51,0,0,0,.62,0c.17-.11.35-.36.23-.56a.1.1,0,0,0-.19.05A.37.37,0,0,1,15.9,3a.3.3,0,0,1-.38,0c-.21-.2,0-.59.3-.58a.06.06,0,0,0,0-.12Z"/><path class="cls-1" d="M7.58,12c.25-.06.6.39.76.54l.74.66,1.42,1.25a32.05,32.05,0,0,0,2.73,2.36c.13.09.27-.11.17-.22a19.64,19.64,0,0,0-1.68-1.47L10,13.63,8.41,12.26c-.22-.18-.56-.61-.87-.4a.05.05,0,0,0,0,.1Z"/><path class="cls-1" d="M7.58,12c.63-.55,1.14-1.23,1.75-1.81.13-.11.41-.48.58-.51s.64.18.86.37.65.56,1,.85c.62.6,1.21,1.23,1.78,1.88l.84,1a2.91,2.91,0,0,0,.84.87.09.09,0,0,0,.13-.1,2.9,2.9,0,0,0-.74-1c-.36-.43-.73-.85-1.11-1.27A26.62,26.62,0,0,0,11.15,9.9c-.24-.21-.61-.66-1-.67a1,1,0,0,0-.62.34,9.76,9.76,0,0,0-2.09,2.31.06.06,0,0,0,.1.08Z"/><path class="cls-1" d="M10.43,9.72c.78.82,1.75,1.48,2.59,2.24s1.52,1.58,2.37,2.23c.11.09.28-.08.2-.19a15.35,15.35,0,0,0-2.46-2.3,15,15,0,0,0-2.67-2s-.05,0,0,0Z"/><path class="cls-1" d="M13.41,16.78a30.51,30.51,0,0,0,2.36-2.33c.1-.1,0-.26-.15-.16a30.42,30.42,0,0,0-2.29,2.4c-.05.07,0,.14.08.09Z"/><path class="cls-1" d="M13.32,16.45a12.93,12.93,0,0,1,.83-1c.29-.32.65-.59.92-.93a.08.08,0,0,0-.1-.13,4.41,4.41,0,0,0-1,.91,6.89,6.89,0,0,0-.78,1.08.06.06,0,0,0,.1.07Z"/><path class="cls-1" d="M12.85,16.22l.73-.69a5.59,5.59,0,0,0,.62-.67.07.07,0,0,0-.1-.1,4.92,4.92,0,0,0-.66.63c-.24.24-.47.48-.69.73a.07.07,0,0,0,.1.1Z"/><path class="cls-1" d="M8.27,12.09c.34-.37.67-.75,1-1.11a13.36,13.36,0,0,0,1.09-1c0-.06,0-.15-.08-.11a4.78,4.78,0,0,0-1.14,1,7.73,7.73,0,0,0-1,1.17c0,.05,0,.11.08.07Z"/><path class="cls-1" d="M8.61,12.65c.34-.35.65-.73,1-1.08s.72-.67,1-1.05c.05-.07,0-.18-.1-.13a5.17,5.17,0,0,0-1.09,1,8.61,8.61,0,0,0-.92,1.17c0,.07.06.15.11.09Z"/><path class="cls-1" d="M9.28,12.56a5.38,5.38,0,0,0,1.16-1c.06-.08,0-.18-.13-.13a2.79,2.79,0,0,0-.57.47c-.19.18-.37.37-.55.56s0,.18.09.12Z"/><path class="cls-1" d="M11.28,14.54a19,19,0,0,0,1.65-1.71.06.06,0,0,0-.08-.08,17.65,17.65,0,0,0-1.67,1.68.07.07,0,0,0,.1.11Z"/><path class="cls-1" d="M11.42,15c.31-.27.6-.58.9-.88a12.46,12.46,0,0,0,.88-.9c0-.05,0-.13-.07-.09a5.87,5.87,0,0,0-1.81,1.8.06.06,0,0,0,.1.07Z"/><path class="cls-1" d="M12.1,15.13a9.84,9.84,0,0,0,1.08-1.4.07.07,0,0,0-.1-.08A9.9,9.9,0,0,0,11.94,15c-.06.09.09.2.16.12Z"/><path class="cls-1" d="M12.55,15.58l.16-.17c.06-.06.1-.13.15-.19a.08.08,0,0,0-.11-.11l-.19.15-.17.16c-.11.1.06.27.16.16Z"/></svg>