<svg id="Layer_1" data-name="Layer 1" xmlns="http://www.w3.org/2000/svg" viewBox="0 0 30 21"><defs><style>.cls-1{fill:#57b947;}</style></defs><path class="cls-1" d="M11.34,12.44A3.9,3.9,0,0,1,8.51,8.7a5.34,5.34,0,0,1,2.76-4.47,8.6,8.6,0,0,1,5.81-1.05,4.5,4.5,0,0,1,3.81,3.51,5.6,5.6,0,0,1-2.71,5.4c-.11.07,0,.25.1.17a5.89,5.89,0,0,0,2.9-4.8A4.5,4.5,0,0,0,18,3.22a8.61,8.61,0,0,0-6.32.52A5.94,5.94,0,0,0,8.29,8.15a3.9,3.9,0,0,0,3,4.42.07.07,0,0,0,0-.13Z"/><path class="cls-1" d="M11.08,12.69c2.06.5,1,3.39,2.49,4.48.09.07.2-.08.12-.15-.83-.79-.77-1.89-1.09-2.91-.22-.69-.72-1.45-1.51-1.5a0,0,0,0,0,0,.08Z"/><path class="cls-1" d="M18.21,12.22c-1.52,1.2-.38,3.67-2.08,4.77-.11.07,0,.23.11.18a2.46,2.46,0,0,0,1.17-2c.13-1,.07-2.12.85-2.88a0,0,0,0,0-.05,0Z"/><path class="cls-1" d="M18.26,12a4.26,4.26,0,0,0-.7.94,0,0,0,0,0,.06.05,4.68,4.68,0,0,0,.74-.91c0-.06-.05-.13-.1-.08Z"/><path class="cls-1" d="M13.62,17.27a7.6,7.6,0,0,0,1.65.06,3.48,3.48,0,0,0,1.5-.31s0-.09,0-.09a2.94,2.94,0,0,0-.66.11,6.79,6.79,0,0,1-.89.12,7.4,7.4,0,0,1-1.56,0c-.08,0-.1.12,0,.13Z"/><path class="cls-1" d="M13.49,17.35l0,0h0s0,0,.05-.05,0,0,0,0a.15.15,0,0,0-.24,0c-.1.16,0,.38.08.54a1.44,1.44,0,0,1,.13.64,4,4,0,0,1-.18.59.35.35,0,0,0,.16.45c.12.06.23-.13.11-.18s0-.48,0-.62a1.19,1.19,0,0,0,0-.46,2,2,0,0,0-.1-.35l-.09-.19c0-.06-.09-.48,0-.43s0,0,0,0Z"/><path class="cls-1" d="M16.31,17.2c.22.24.12.6.11.9a3.29,3.29,0,0,0,0,1c0,.07.1.06.12,0a5,5,0,0,0,.08-1.34c0-.22,0-.48-.19-.61a0,0,0,0,0-.07,0l0,0v0Z"/><path class="cls-1" d="M13.71,18c-.14,0-.37,0-.08.05a2.66,2.66,0,0,0,.28,0,7.54,7.54,0,0,0,.95,0,4.53,4.53,0,0,0,1.64-.24c.07,0,0-.13,0-.13-.51,0-1,.17-1.54.2s-1-.05-1.56,0a0,0,0,1,0,0,.06l.33.05s0,0,0,0Z"/><path class="cls-1" d="M13.77,18.71a5.47,5.47,0,0,0,2.78-.19.09.09,0,0,0-.05-.18,7,7,0,0,1-2.72.28s-.06.08,0,.09Z"/><path class="cls-1" d="M13.29,19.73c-.14.14,0,.36.07.5a1,1,0,0,0,.74.35,4.72,4.72,0,0,0,2.48-.48.07.07,0,0,0,0-.12,7.17,7.17,0,0,1-1.83.43,2.37,2.37,0,0,1-.84,0,.8.8,0,0,1-.43-.31c-.1-.17,0-.21-.12-.33s0,0,0,0Z"/><path class="cls-1" d="M16.28,19a1.2,1.2,0,0,1-.06,1.3s0,.07.07,0a1,1,0,0,0,0-1.38,0,0,0,0,0,0,0Z"/><path class="cls-1" d="M13.48,19.65a3.36,3.36,0,0,0,1.64.13,5.37,5.37,0,0,0,1.61-.45c.1,0,0-.21-.1-.16a4.85,4.85,0,0,1-1.63.47c-.52.05-1-.05-1.51-.05a0,0,0,0,0,0,.06Z"/><path class="cls-1" d="M13.3,17.73c-.31-.22-.71.14-.65.47,0,0,0,.07.08.06a3.41,3.41,0,0,0,.78-.11s.06-.1,0-.11a3.42,3.42,0,0,0-.78.06l.07.06c-.05-.25.25-.39.45-.31s.11-.08.05-.12Z"/><path class="cls-1" d="M16.3,17.61a4.18,4.18,0,0,0,.61-.05l-.06,0c.07.11,0,.21-.11.25a2,2,0,0,1-.35,0s0,.08,0,.09a.48.48,0,0,0,.55-.06.31.31,0,0,0,0-.4.1.1,0,0,0-.07,0,3,3,0,0,0-.6.12,0,0,0,0,0,0,.07Z"/><path class="cls-1" d="M13.64,20.68c.2.5,1,.36,1.21,0,.06-.09-.09-.17-.15-.08a.36.36,0,0,1-.59,0l-.13.1a.7.7,0,0,0,.6.18.08.08,0,0,0,0-.13.48.48,0,0,0-.53-.13.08.08,0,0,0,0,.15.59.59,0,0,0,.37,0,.07.07,0,0,0,0-.12.62.62,0,0,0-.48-.05c-.05,0-.07.1,0,.12a.48.48,0,0,0,.31.07c.06,0,.11-.08.06-.13a.34.34,0,0,0-.48,0,.08.08,0,0,0,0,.1.21.21,0,0,0,.29,0c.05,0,0-.11-.05-.1L14,20.68v.1a.19.19,0,0,1,.27,0l0-.12a.34.34,0,0,1-.24,0l0,.13a.48.48,0,0,1,.37,0l0-.11a.81.81,0,0,1-.31-.06v.15a.33.33,0,0,1,.39.09l0-.13a.48.48,0,0,1-.45-.15c-.06-.07-.17,0-.12.1a.52.52,0,0,0,.88,0l-.15-.08a.58.58,0,0,1-.48.28.72.72,0,0,1-.5-.22s-.09,0-.08.05Z"/><path class="cls-1" d="M15.3,20.57a.43.43,0,0,0,.46.22.5.5,0,0,0,.36-.39c0-.1-.09-.13-.14-.07a.89.89,0,0,1-.25.26.24.24,0,0,1-.34-.1l-.08.08a.84.84,0,0,0,.85-.11.05.05,0,0,0,0-.1.68.68,0,0,0-.61.26l.11.09a.45.45,0,0,1,.28-.24s0-.06,0-.06a.38.38,0,0,0-.39.23c0,.08.08.15.12.07a.5.5,0,0,1,.5-.24l0-.09a.73.73,0,0,1-.74.08s-.1,0-.09.07a.32.32,0,0,0,.37.24.74.74,0,0,0,.47-.36l-.14,0a.31.31,0,0,1-.26.28.39.39,0,0,1-.33-.14c0-.05-.1,0-.08.06Z"/><path class="cls-1" d="M15.41,20.62a.54.54,0,0,0,.92-.13c0-.07,0-.11-.1-.08a.43.43,0,0,0-.17.13c0,.05,0,.13.08.1a.44.44,0,0,0,.18-.12l-.12-.07a.44.44,0,0,1-.72.12s-.1,0-.07.05Z"/><path class="cls-1" d="M13.4,19.43a.53.53,0,0,0,0,.75s.06,0,0-.05a.51.51,0,0,1,0-.65s0-.09-.06-.05Z"/><path class="cls-1" d="M14.27,11.27s0,0,0,0,0,0,0,0Z"/><path class="cls-1" d="M14.36,11.18a.48.48,0,0,1,0-.45.37.37,0,0,1,.39-.19.39.39,0,0,1,.14.73c-.1.06,0,.23.09.16a.58.58,0,0,0-.17-1.06.55.55,0,0,0-.59.23.59.59,0,0,0,0,.66c0,.05.16,0,.13-.08Z"/><path class="cls-1" d="M14.23,11.27a8.36,8.36,0,0,1,.31,1.47c.05.43,0,.87.07,1.29,0,.06.11.05.12,0a3.71,3.71,0,0,0,0-1.37,5.84,5.84,0,0,0-.41-1.41s-.07,0-.06,0Z"/><path class="cls-1" d="M14.86,11.48c0,.43.16.89.2,1.32a10.24,10.24,0,0,1,0,1.36c0,.11.17.11.18,0a10.55,10.55,0,0,0-.08-1.49,3.83,3.83,0,0,0-.29-1.21s-.06,0-.06,0Z"/><path class="cls-1" d="M14.21,11.46c0,.45.12.89.16,1.34A4.91,4.91,0,0,0,14.49,14a0,0,0,0,0,.08,0,3.53,3.53,0,0,0-.06-1.29,9.28,9.28,0,0,0-.23-1.28s-.07,0-.07,0Z"/><path class="cls-1" d="M14.37,11.47a17.48,17.48,0,0,0,.05,2.61.09.09,0,1,0,.17,0c-.07-.87-.07-1.74-.14-2.61a0,0,0,0,0-.08,0Z"/><path class="cls-1" d="M14.79,11.49c.11-.16.07.06.07.14s0,.19,0,.28c0,.24,0,.47,0,.71,0,.44-.07.89-.06,1.33,0,.09.15.12.16,0A10.09,10.09,0,0,0,15,12.62a8.66,8.66,0,0,0-.05-1.35s0,0-.06,0a1.28,1.28,0,0,1-.11.2s0,0,0,0Z"/><path class="cls-1" d="M14.79,11.4c0,.43,0,.85,0,1.27a4.82,4.82,0,0,0,.07,1.14,0,0,0,0,0,.08,0,4.84,4.84,0,0,0,0-1.14c0-.42,0-.85-.08-1.27,0,0-.07,0-.07,0Z"/><path class="cls-1" d="M14.9,11.33c0,.46,0,.92,0,1.37A8.79,8.79,0,0,0,15,14c0,.07.11,0,.11,0a8.09,8.09,0,0,0-.06-1.3c0-.44-.07-.88-.11-1.31a0,0,0,1,0-.07,0Z"/><path class="cls-1" d="M14.1,10.91a.45.45,0,0,1,.82-.11.93.93,0,0,1,0,.95c0,.09.09.17.13.08a1,1,0,0,0-.18-1.25.49.49,0,0,0-.77.33s0,0,0,0Z"/><path class="cls-1" d="M14.41,14.23a1.86,1.86,0,0,0,.33,0,1.67,1.67,0,0,0,.32-.08s0,0,0-.06a1.76,1.76,0,0,0-.31,0,2.05,2.05,0,0,0-.34.07s0,.07,0,.07Z"/><path class="cls-1" d="M14.29,14.41c.23,0,.47-.09.7-.15.07,0,0-.12,0-.1-.23.05-.46.12-.69.19,0,0,0,.07,0,.06Z"/><path class="cls-1" d="M14.27,14.32a3,3,0,0,0,.94-.05c.06,0,0-.11,0-.09a3.47,3.47,0,0,1-.91.09s0,0,0,.05Z"/><path class="cls-1" d="M14.44,14.42a.77.77,0,0,1,.36-.07,1.22,1.22,0,0,0,.27,0,0,0,0,0,0,0,0c-.15-.17-.51-.05-.67,0s0,.07,0,.06Z"/><path class="cls-1" d="M14.4,14.31c-.38.11-.32.61-.29.91.08.74,0,1.46.06,2.19,0,.08.15.11.17,0a7.31,7.31,0,0,0,0-1.55c0-.26,0-.52-.08-.79s-.11-.6.17-.74c0,0,0,0,0,0Z"/><path class="cls-1" d="M14.92,14.28c1,0,.43,2.57.36,3.09,0,.12.14.17.17.05a7.86,7.86,0,0,0,.16-2.27c0-.41-.17-1-.69-.92,0,0,0,0,0,0Z"/><path class="cls-1" d="M15.05,14.23a3.85,3.85,0,0,1,.51,1.47,5.06,5.06,0,0,1-.13,1.55c0,.07.09.13.12.05a3.34,3.34,0,0,0-.45-3.11s-.07,0,0,0Z"/><path class="cls-1" d="M14.81,14.65l.08,0a1.21,1.21,0,0,1,0,.18,2.17,2.17,0,0,1,.07.24,5.28,5.28,0,0,1,.13.67,7,7,0,0,0,.08,1.13s0,0,.06,0a1.82,1.82,0,0,0,0-.9,4.16,4.16,0,0,0-.21-1c0-.1-.12-.48-.23-.5s-.1,0-.1.11,0,0,.05,0Z"/><path class="cls-1" d="M14.75,14.51A13.68,13.68,0,0,1,15,15.94c0,.39,0,.81.09,1.19,0,.07.09,0,.1,0a4.9,4.9,0,0,0-.09-1.32,11.53,11.53,0,0,0-.27-1.3,0,0,0,0,0,0,0Z"/><path class="cls-1" d="M12.9,9.71a1.2,1.2,0,0,1,0-.19h-.09c.15.8.37,1.59.54,2.38a23.55,23.55,0,0,0,.5,2.39.07.07,0,0,0,.14,0,12.66,12.66,0,0,0-.45-2.35,20,20,0,0,0-.64-2.42,0,0,0,1,0-.09,0l0,.18s.06,0,.07,0Z"/><path class="cls-1" d="M16.19,9.35a8.42,8.42,0,0,0-.14,1.23c-.05.51-.12,1-.2,1.53s-.15.9-.24,1.34a7.27,7.27,0,0,0-.26,1.28s0,0,.06,0a5.46,5.46,0,0,0,.34-1.26c.1-.46.19-.93.26-1.4s.12-.83.16-1.24a6.87,6.87,0,0,0,.08-1.5s-.06,0-.06,0Z"/><path class="cls-1" d="M13.83,14.51a.73.73,0,0,0,.08.5s0,0,0,0,0-.15-.06-.23a1.13,1.13,0,0,1,0-.26,0,0,0,0,0-.05,0Z"/><path class="cls-1" d="M14,14.31a4.13,4.13,0,0,0,.24.7s.05,0,.05,0a5.78,5.78,0,0,0-.24-.7,0,0,0,1,0,0,0Z"/><path class="cls-1" d="M14.41,9a3.08,3.08,0,0,0,0-.61c0-.07-.12-.05-.12,0,0,.45.05.91.07,1.36A10,10,0,0,0,14.42,11a.07.07,0,0,0,.13,0,9.21,9.21,0,0,0-.07-1.29c0-.43-.06-.86-.1-1.29l-.12,0a2.27,2.27,0,0,1,.1.58s0,0,.05,0Z"/><path class="cls-1" d="M12.36,9.71c0,.08,0,0,0-.12s0-.22.21-.14V9.21q.12-.48.54,0l.09,0A.39.39,0,0,1,13,8.67a.29.29,0,0,1,.27-.2,1.32,1.32,0,0,0,.49-.31l.39.17h-.07c.1-.28.23-.3.38-.07.19.05.25.16.17.32l.1,0,0-.24c0-.2.13-.23.26-.08s.2.1.13.22a.28.28,0,0,1-.08.21l.1,0c.39-.11.46-.08.19.09l.08.06.1-.22c.16-.1.24-.07.24.1a.57.57,0,0,1-.07.49h.11c.43-.31.51-.27.25.11l.07.11.2-.16-.09-.07a1.65,1.65,0,0,1-.09.66c0,.09.11.13.14,0a1.86,1.86,0,0,0,.1-.7s-.05-.09-.09-.07a.5.5,0,0,0-.29.23s0,.12.08.1a.38.38,0,0,0,.12-.65c-.29-.2-.6.15-.52.43a.06.06,0,0,0,.11,0,.76.76,0,0,0,0-.83s0,0-.07,0a.46.46,0,0,0-.39.4.06.06,0,0,0,.09.07.38.38,0,0,0-.06-.74.36.36,0,0,0-.28.64.06.06,0,0,0,.09,0c.13-.19.2-.79-.16-.77s-.43.44-.31.67a.06.06,0,0,0,.11,0c.1-.34-.15-.75-.54-.6a.36.36,0,0,0,0,.67.06.06,0,0,0,.08,0,.47.47,0,0,0-.74-.49c-.23.17-.37.89.09.76a.05.05,0,0,0,0-.06.42.42,0,0,0-.65-.41.51.51,0,0,0,.07.87s.07,0,.09,0a.38.38,0,0,0-.38-.48c-.29,0-.44.35-.4.6s.24.44.37.17-.22-.37-.42-.39a.05.05,0,0,0,0,0,.79.79,0,0,0,0,.67s0,0,0,0,.13-.14,0-.21,0,0,0,0Z"/><path class="cls-1" d="M12.32,9.91a.31.31,0,0,0,.27.18c.1,0,.27,0,.31-.12a.06.06,0,0,0-.09-.07l-.08.1a.17.17,0,0,1-.12,0,.27.27,0,0,1-.27-.14s0,0,0,0Z"/><path class="cls-1" d="M8.14,16.65c.51-.33,1-.69,1.48-1.06a6.65,6.65,0,0,0,1.31-1.1s0-.11-.06-.08a10.48,10.48,0,0,0-1.27,1L8.09,16.57c-.05,0,0,.11.05.08Z"/><path class="cls-1" d="M7.72,14.33a5.19,5.19,0,0,0,.87-.46,3.22,3.22,0,0,0,.79-.58s0-.11-.06-.08c-.28.16-.52.39-.79.57s-.55.34-.83.51a0,0,0,0,0,0,0Z"/><path class="cls-1" d="M6,12.56A14.46,14.46,0,0,0,8.1,11.47c.08-.05,0-.18-.07-.13-.68.44-1.39.81-2.1,1.18,0,0,0,.05,0,0Z"/><path class="cls-1" d="M5.94,10.41a5.87,5.87,0,0,0,1.31-.34s0-.08,0-.08a6,6,0,0,0-1.3.35s0,.08,0,.07Z"/><path class="cls-1" d="M5,7.51c.53.19,1.07.35,1.62.51.23.07.57.21.73,0a.06.06,0,0,0-.08-.08c-.31.16-.82-.09-1.14-.17S5.4,7.52,5,7.44c0,0,0,0,0,.07Z"/><path class="cls-1" d="M6.63,5.57c.51.22,1,.46,1.56.64.08,0,.13-.1.06-.13-.52-.22-1.06-.39-1.6-.57,0,0-.05,0,0,.06Z"/><path class="cls-1" d="M7.41,2.59A17.72,17.72,0,0,0,9.46,4.78a.09.09,0,0,0,.12-.12C8.87,4,8.15,3.26,7.47,2.53c0,0-.1,0-.06.06Z"/><path class="cls-1" d="M9.85,2.55c.18.22.36.45.53.68a2.25,2.25,0,0,0,.4.52s.08,0,.07,0a1.88,1.88,0,0,0-.37-.6,6.64,6.64,0,0,0-.56-.63c-.05-.05-.12,0-.07.08Z"/><path class="cls-1" d="M11.47.68c.13.48.28,1,.45,1.43a6.47,6.47,0,0,0,.54,1.27.07.07,0,0,0,.12,0A11.51,11.51,0,0,0,12.05,2L11.54.66c0-.05-.09,0-.07,0Z"/><path class="cls-1" d="M13.45,1.73a2.53,2.53,0,0,0,.11,1.16.07.07,0,0,0,.13,0c0-.38-.14-.74-.15-1.13,0-.06-.08-.06-.09,0Z"/><path class="cls-1" d="M15.27.53a1.36,1.36,0,0,0,.12-.48.06.06,0,0,0-.11,0c0,.77-.07,1.54-.11,2.31,0,.08.14.1.15,0A11.33,11.33,0,0,0,15.39.05l-.11,0a.58.58,0,0,1,0,.45s0,0,0,0Z"/><path class="cls-1" d="M16.56,1.57a6,6,0,0,0-.11.61,1.5,1.5,0,0,0,0,.47s.06,0,.08,0a1.65,1.65,0,0,0,.1-.5,3.68,3.68,0,0,0,.06-.58,0,0,0,0,0-.09,0Z"/><path class="cls-1" d="M19,.42A25.6,25.6,0,0,0,18,3c0,.08.1.11.13,0A23.1,23.1,0,0,0,19.09.45S19,.37,19,.42Z"/><path class="cls-1" d="M19.19,3.37a6.34,6.34,0,0,1,.39-.66c.14-.21.34-.38.46-.6,0,0,0-.09-.06-.06a1.89,1.89,0,0,0-.49.56,3.9,3.9,0,0,0-.36.74s.05.06.06,0Z"/><path class="cls-1" d="M20.38,4c.47-.32.92-.67,1.4-1s1-.56,1.47-.89c.05,0,0-.13,0-.11a7.24,7.24,0,0,0-1.5.87A10.91,10.91,0,0,0,20.33,4s0,.09.05.06Z"/><path class="cls-1" d="M20.8,5.24c.48-.26,1-.38,1.47-.59a0,0,0,0,0,0-.07,3.74,3.74,0,0,0-1.48.6s0,.08,0,.06Z"/><path class="cls-1" d="M21.41,6.66A23.24,23.24,0,0,0,24.3,6.6a.07.07,0,1,0,0-.13,23.27,23.27,0,0,0-2.89.11c-.05,0-.05.08,0,.08Z"/><path class="cls-1" d="M21.41,8.2c.6.07,1.23.11,1.84.13.08,0,.08-.12,0-.13a16.28,16.28,0,0,0-1.84-.08c-.05,0-.05.07,0,.08Z"/><path class="cls-1" d="M21.45,9.33c.57.24,1.14.45,1.72.64a8.52,8.52,0,0,0,1.78.48c.08,0,.09-.12,0-.14-.56-.22-1.18-.32-1.76-.49s-1.15-.36-1.73-.56c0,0-.06.05,0,.07Z"/><path class="cls-1" d="M20.94,10.51a1.79,1.79,0,0,0,.57.42,2,2,0,0,0,.73.31c.05,0,.09-.06,0-.09-.22-.13-.47-.22-.69-.34a4.07,4.07,0,0,0-.6-.35,0,0,0,0,0,0,0Z"/><path class="cls-1" d="M20.18,11.21c.37.44.75.86,1.13,1.28a12.3,12.3,0,0,0,1.16,1.23c.06,0,.16,0,.11-.08a14.2,14.2,0,0,0-1.11-1.22c-.4-.42-.81-.85-1.23-1.27,0,0-.09,0-.06.06Z"/><path class="cls-1" d="M19.25,12.35l.46.62c.13.19.25.4.39.59s.12,0,.1-.08a5.38,5.38,0,0,0-.89-1.18s-.09,0-.06,0Z"/><path class="cls-1" d="M18.27,13.26A13.77,13.77,0,0,0,19.8,16a.07.07,0,0,0,.12-.07c-.24-.46-.54-.9-.8-1.36s-.5-.93-.77-1.38c0-.06-.1,0-.08,0Z"/><path class="cls-1" d="M11.56,15a5.94,5.94,0,0,0-.38.59,3.74,3.74,0,0,0-.34.62s0,.06.06,0a4,4,0,0,0,.37-.6A6.08,6.08,0,0,0,11.6,15a0,0,0,0,0,0,0Z"/><path class="cls-1" d="M17.7,14.8a3.42,3.42,0,0,0,.13.71.07.07,0,0,0,.13,0,4.65,4.65,0,0,0-.16-.72c0-.06-.11,0-.1,0Z"/><path class="cls-1" d="M9.48,8.93a7.26,7.26,0,0,1,1.45-3.32,8.6,8.6,0,0,1,3.21-1.75.05.05,0,0,0,0-.1,6.68,6.68,0,0,0-3.3,1.73A6.08,6.08,0,0,0,9.45,8.92s0,0,0,0Z"/><path class="cls-1" d="M14.93,3.94l.08,0a.12.12,0,0,0,.07,0s0,0,0-.05a.19.19,0,0,0-.08,0l-.09,0s0,.1,0,.07Z"/><path class="cls-1" d="M15.84,3.89l.07,0a0,0,0,0,0,0-.05l-.07,0c-.08,0-.08.12,0,.09Z"/><path class="cls-1" d="M16.61,3.94a0,0,0,0,0,0,0s0,0,0,0Z"/><path class="cls-1" d="M9.75,7.16a4.65,4.65,0,0,0-.12,2.56s.06,0,0,0a5.32,5.32,0,0,1,.1-2.54s0,0,0,0Z"/><path class="cls-1" d="M9.67,8.64a5.33,5.33,0,0,1,3.21-3.42,0,0,0,0,0,0,0,5,5,0,0,0-3.2,3.46s0,0,0,0Z"/><path class="cls-1" d="M19.42,6.11a4.05,4.05,0,0,1-.11,3.71,0,0,0,0,0,.07,0,3.65,3.65,0,0,0,.07-3.77s0,0,0,0Z"/><path class="cls-1" d="M13.43,17.7h.21a0,0,0,0,0,0,0h-.21a0,0,0,0,0,0,0Z"/><path class="cls-1" d="M13.57,17.53h-.19a0,0,0,0,0,0,.05h.47a0,0,0,0,0,0,0h-.47a0,0,0,0,0,0,.05h.19a0,0,0,1,0,0,0Z"/><path class="cls-1" d="M13.36,17.56h.7a0,0,0,0,0,0,0h-.7s0,0,0,0Z"/><path class="cls-1" d="M13.21,17.43a13.53,13.53,0,0,1,1.42.09s0-.06,0-.07a5.19,5.19,0,0,0-1.42-.07s0,.05,0,.05Z"/><path class="cls-1" d="M13.5,17.64h1a0,0,0,0,0,0-.05c-.33,0-.66,0-1,0a0,0,0,0,0,0,.05Z"/><path class="cls-1" d="M13.36,17.79c.42,0,.84,0,1.27,0a0,0,0,1,0,0,0c-.43,0-.85,0-1.27,0,0,0,0,.05,0,.06Z"/><path class="cls-1" d="M13.5,17.91H14s0,0,0,0H13.5s0,0,0,0Z"/><path class="cls-1" d="M13.41,18.37a2.14,2.14,0,0,0,.94.05c.05,0,0-.07,0-.07a5.54,5.54,0,0,1-.91,0s0,.05,0,.05Z"/><path class="cls-1" d="M13.49,18.5a3.13,3.13,0,0,0,1.14.05s0-.05,0-.05a7.08,7.08,0,0,1-1.13,0s0,0,0,0Z"/><path class="cls-1" d="M13.5,18.9a8.5,8.5,0,0,0,1.13,0,0,0,0,0,0,0-.06,8.51,8.51,0,0,0-1.13,0,0,0,0,1,0,0,0Z"/><path class="cls-1" d="M13.49,19.14a2.67,2.67,0,0,0,1.43,0s0-.05,0-.05a6,6,0,0,1-1.41,0s-.05.05,0,.06Z"/><path class="cls-1" d="M13.43,19.34c.49,0,1,0,1.48,0,0,0,0-.05,0-.05-.5,0-1,0-1.48,0a0,0,0,1,0,0,.06Z"/><path class="cls-1" d="M13.42,19.45a6.84,6.84,0,0,0,1.63,0s0-.07,0-.07H13.42s0,0,0,.05Z"/><path class="cls-1" d="M13.43,19.54c.42,0,.84,0,1.27,0,0,0,0,0,0,0H13.43a0,0,0,0,0,0,0Z"/><path class="cls-1" d="M13.21,19.83a11.21,11.21,0,0,0,1.42,0s0-.06,0-.07a11.21,11.21,0,0,0-1.42,0,0,0,0,0,0,0,0Z"/><path class="cls-1" d="M13.28,20a6,6,0,0,0,1.64.05s0-.08,0-.08c-.54,0-1.08,0-1.63,0,0,0,0,0,0,.05Z"/><path class="cls-1" d="M13.35,20.1a4.36,4.36,0,0,0,1.57,0,0,0,0,0,0,0-.07,8.92,8.92,0,0,1-1.55,0,0,0,0,0,0,0,.06Z"/><path class="cls-1" d="M13.69,20.16c0,.21.27.19.44.19a5.22,5.22,0,0,0,1.36-.22s0-.08,0-.07c-.22.05-1.67.4-1.74.09,0,0-.05,0,0,0Z"/><path class="cls-1" d="M13.13,19.73a.56.56,0,0,0,0,.36s0,0,0,0a.56.56,0,0,1,0-.34s0,0,0,0Z"/><path class="cls-1" d="M13.48,19.65a.47.47,0,0,0,.07.6s.06,0,0,0a.45.45,0,0,1-.06-.53s0-.06,0,0Z"/></svg>