<svg id="Layer_1" data-name="Layer 1" xmlns="http://www.w3.org/2000/svg" viewBox="0 0 30 21"><defs><style>.cls-1{fill:#57b947;}</style></defs><path class="cls-1" d="M28.17,8.22a5.39,5.39,0,0,1-.3,3,5.49,5.49,0,0,1-.79,1.37c-.32.39-.75.66-1.08,1-.05.06,0,.17.08.14a4.28,4.28,0,0,0,2-2.35,5.14,5.14,0,0,0,.21-3.26s-.08,0-.07,0Z"/><path class="cls-1" d="M25.52,12.86a5.31,5.31,0,0,0,.15,1.07.06.06,0,0,0,.11,0,6.51,6.51,0,0,0-.13-1.07c0-.07-.14-.06-.13,0Z"/><path class="cls-1" d="M25.78,12.65a1.27,1.27,0,0,0,.13,1.21.05.05,0,0,0,.09,0c0-.19-.11-.36-.13-.55a1.39,1.39,0,0,1,.06-.57.08.08,0,0,0-.15,0Z"/><path class="cls-1" d="M26.19,12.47a1.39,1.39,0,0,0,0,1.18s.07,0,.07,0a2.28,2.28,0,0,1,0-1.13.06.06,0,0,0-.11,0Z"/><path class="cls-1" d="M26.46,12.54a.63.63,0,0,0,0,.75s.1,0,.08,0a.69.69,0,0,1,.05-.61c.06-.09-.09-.18-.15-.09Z"/><path class="cls-1" d="M26.74,12.49a1.62,1.62,0,0,0,0,.2,0,0,0,0,0,.09,0,.71.71,0,0,0,0-.2c0-.09-.14-.09-.14,0Z"/><path class="cls-1" d="M7.41,3.56a3.65,3.65,0,0,0-4.91,2,4.42,4.42,0,0,0,.84,4.79,3.64,3.64,0,0,0,1,.73,2.55,2.55,0,0,0,.48.2c.08,0,.2,0,.24.11a2.77,2.77,0,0,1,0,.41,4,4,0,0,0,1.24,2.49c1.6,1.58,4,1.7,6.06,1.37.33-.05.87-.28,1.19-.15s.52.34.77.47a6.83,6.83,0,0,0,1.58.59,6.68,6.68,0,0,0,3.63-.11.09.09,0,0,0-.05-.18,7.18,7.18,0,0,1-4.23-.17,7.78,7.78,0,0,1-.93-.42c-.2-.11-.57-.47-.79-.5a2.34,2.34,0,0,0-.73.13,12,12,0,0,1-1.32.19A6.58,6.58,0,0,1,7.2,14.7a3.89,3.89,0,0,1-1.9-3.45.12.12,0,0,0-.09-.12,4,4,0,0,1-2.8-4.24A3.66,3.66,0,0,1,7.34,3.73c.1,0,.16-.12.07-.17Z"/><path class="cls-1" d="M7.59,3.91A13.12,13.12,0,0,1,15.64.26c2.73-.19,6.75.44,8,3.27a.09.09,0,0,0,.1.06,4.36,4.36,0,0,1,4.51,4,6,6,0,0,1-3.4,5.54c-.1.05-.07.17,0,.23,1.57,1.19.54,3.28-.54,4.38A10.24,10.24,0,0,1,20,20.31a.13.13,0,0,0,.07.26,9.88,9.88,0,0,0,4.86-3.17c1-1.2,1.48-3.17.06-4.27l0,.21a6.32,6.32,0,0,0,3.53-5,4.81,4.81,0,0,0-2.94-4.72,3.88,3.88,0,0,0-1.43-.29c-.32,0-.33,0-.48-.3a3.92,3.92,0,0,0-.51-.7A6.39,6.39,0,0,0,20.43.65,12.12,12.12,0,0,0,13.92.27,11.77,11.77,0,0,0,7.5,3.82a.06.06,0,0,0,.09.09Z"/><path class="cls-1" d="M19.21,16.5A3.36,3.36,0,0,0,20.7,16a2,2,0,0,1,.35-.25c.37-.12.44.28.51.5a3.14,3.14,0,0,1,.15,1.05,3.46,3.46,0,0,1-2.08,3.1.12.12,0,0,0,.09.22A3.52,3.52,0,0,0,22,17.14c0-.41-.15-1.53-.64-1.64-.26-.06-.5.23-.69.36a4.12,4.12,0,0,1-1.42.59s0,.05,0,.05Z"/><path class="cls-1" d="M2.73,5.09A6.85,6.85,0,0,0,1.55,9.9c.2,1.26,1.14,3,2.62,3,.09,0,.14-.14,0-.17a4,4,0,0,1-1.6-1,4,4,0,0,1-.87-2.22,7.19,7.19,0,0,1,1-4.41,0,0,0,0,0-.07,0Z"/><path class="cls-1" d="M3.7,12.84a3.43,3.43,0,0,0,.88,2.28,5.7,5.7,0,0,0,2,1.65,7.15,7.15,0,0,0,2.95.71A8,8,0,0,0,12.79,17c.08,0,0-.17,0-.16a29,29,0,0,1-3,.36,7.1,7.1,0,0,1-3-.65,5.73,5.73,0,0,1-1.93-1.49A4.79,4.79,0,0,1,4.14,14c-.17-.36-.22-.78-.39-1.13,0,0,0,0,0,0Z"/><path class="cls-1" d="M12.58,17c.92,1.17,2.47,1.29,3.85,1.29a13.25,13.25,0,0,0,2.09-.12,3.42,3.42,0,0,0,1.9-.77c.07-.06,0-.2-.09-.16a10.52,10.52,0,0,1-1.73.63,11.26,11.26,0,0,1-2,.14c-1.37,0-2.92,0-3.88-1.15-.08-.1-.21,0-.13.14Z"/><path class="cls-1" d="M19.91,17.45a3,3,0,0,1,.21,1.88,4.68,4.68,0,0,1-.9,1.56c0,.05,0,.13.08.11a2.22,2.22,0,0,0,1.05-1.6,2.56,2.56,0,0,0-.33-2s-.14,0-.11.05Z"/><path class="cls-1" d="M25.85,13.71c-.12.09-.26.18-.38.29s0,0,0,0,.25-.19.38-.28,0-.06,0,0Z"/><path class="cls-1" d="M12.94,15.72c0-.15,0-.3,0-.45s-.1-.08-.12,0a4.13,4.13,0,0,0-.32,1.8s.06.06.07,0c.14-.6.18-1.19.37-1.78h-.12a2.41,2.41,0,0,1,.08.44s0,0,0,0Z"/><path class="cls-1" d="M13,15.34a14.89,14.89,0,0,0-.1,2s.07.05.08,0a15.06,15.06,0,0,0,.12-2c0-.06-.09-.06-.1,0Z"/><path class="cls-1" d="M13.2,15.43a4,4,0,0,0-.07,1.92,0,0,0,0,0,.08,0c0-.64,0-1.25.07-1.89,0,0-.07-.07-.08,0Z"/><path class="cls-1" d="M13.44,15.7a5.52,5.52,0,0,0-.1,1.94c0,.07.12.05.12,0,0-.63,0-1.26.11-1.9,0-.08-.12-.09-.13,0Z"/><path class="cls-1" d="M15.4,16.58c-.05.5-.12,1-.14,1.52,0,0,.05,0,.05,0,.07-.5.09-1,.12-1.52a0,0,0,1,0,0,0Z"/><path class="cls-1" d="M15.81,16.37a6.93,6.93,0,0,0-.09,2c0,.07.13.05.13,0a16.7,16.7,0,0,1,.06-2c0-.05-.09-.07-.1,0Z"/><path class="cls-1" d="M16,16.86a2.61,2.61,0,0,0,.09,1.36s.07,0,.07,0a2.66,2.66,0,0,0,0-.63,4.33,4.33,0,0,1,0-.72c0-.11-.16-.1-.17,0Z"/><path class="cls-1" d="M16.41,17.13a1.15,1.15,0,0,0-.12,1.09c0,.06.1,0,.09,0a1.42,1.42,0,0,1,.15-1,.07.07,0,1,0-.12-.07Z"/><path class="cls-1" d="M18.92,16.85c0,.21,0,.42,0,.62A2.53,2.53,0,0,0,19,18c0,.07.1.05.12,0a2.36,2.36,0,0,0,0-1.18.06.06,0,0,0-.11,0Z"/><path class="cls-1" d="M19.41,16.58a8.69,8.69,0,0,0,0,1.35c0,.06.12.06.13,0a8.69,8.69,0,0,0,0-1.35.08.08,0,1,0-.16,0Z"/><path class="cls-1" d="M19.88,16.36a2.94,2.94,0,0,0-.05,1.47s.08.05.09,0a4.36,4.36,0,0,0,0-.62,4.26,4.26,0,0,1,.09-.8c0-.11-.14-.15-.16-.05Z"/><path class="cls-1" d="M20.2,16.34a.87.87,0,0,0-.18.83s.09,0,.09,0a2.11,2.11,0,0,1,0-.36.85.85,0,0,1,.17-.36c.05-.06,0-.15-.1-.09Z"/><path class="cls-1" d="M20.48,16.12a6.25,6.25,0,0,1-.09,2.82s.06.08.08,0a4.08,4.08,0,0,0,.1-2.88,0,0,0,1,0-.09,0Z"/><path class="cls-1" d="M20.77,15.83a4.4,4.4,0,0,1-.38,3.66s0,.09.06.05a3.62,3.62,0,0,0,.42-3.76c0-.06-.13,0-.1.05Z"/><path class="cls-1" d="M21,15.55a5.45,5.45,0,0,1,0,3.2c0,.07.1.13.13.05a4.33,4.33,0,0,0,0-3.28s-.11,0-.09,0Z"/><path class="cls-1" d="M25.26,13.06a6.06,6.06,0,0,0,.18,1s.07,0,.07,0a6.3,6.3,0,0,0-.21-1s-.05,0,0,0Z"/><path class="cls-1" d="M3.81,13.45a14.13,14.13,0,0,0,1-2.19,0,0,0,0,0-.07,0,15.29,15.29,0,0,0-1,2.19s0,.07.07,0Z"/><path class="cls-1" d="M4,13.83c.13-.3.23-.61.37-.9s.32-.58.45-.87c0-.05,0-.11-.07-.07a3.61,3.61,0,0,0-.82,1.81s.05.07.07,0Z"/><path class="cls-1" d="M4.11,14.6c.16-.37.3-.76.48-1.13a7.22,7.22,0,0,0,.47-1,0,0,0,0,0-.06,0,3.47,3.47,0,0,0-.59,1A5.55,5.55,0,0,0,4,14.56s.06.09.09,0Z"/><path class="cls-1" d="M4.53,14.88A4.5,4.5,0,0,1,4.77,14c.12-.29.29-.54.39-.83,0-.06,0-.09-.09-.05a2.77,2.77,0,0,0-.66,1.76c0,.07.11.08.12,0Z"/><path class="cls-1" d="M4.8,14.9a4.48,4.48,0,0,0,.37-.68s0-.08-.07-.05a5.59,5.59,0,0,0-.41.66c0,.07.07.13.11.07Z"/><path class="cls-1" d="M8.3,15.42a5,5,0,0,0-.13.8,2.91,2.91,0,0,0-.06.83c0,.06.08.05.1,0a3.5,3.5,0,0,0,.15-1c0-.2.14-.52,0-.68a.08.08,0,0,0-.08,0s0,0-.06.1,0,.05,0,.05h0c.05,0,.09-.07,0-.09Z"/><path class="cls-1" d="M8.86,15.61a3,3,0,0,0-.06,1.45s.07,0,.07,0a3.19,3.19,0,0,0,0-.62,5.44,5.44,0,0,1,.09-.8.06.06,0,1,0-.12,0Z"/><path class="cls-1" d="M9.24,15.72a6.9,6.9,0,0,0-.09,1.63s.08,0,.1,0a7.33,7.33,0,0,0,.15-1.63c0-.1-.15-.1-.16,0Z"/><path class="cls-1" d="M9.7,15.79a3.33,3.33,0,0,0-.06,1.47s.09,0,.1,0c.07-.47,0-1,.12-1.42,0-.11-.14-.15-.16-.05Z"/><path class="cls-1" d="M11.13,15.91A4.73,4.73,0,0,0,11.06,17s.07,0,.08,0a4.15,4.15,0,0,0,.11-1.06c0-.08-.11-.08-.12,0Z"/><path class="cls-1" d="M11.68,15.91a3.44,3.44,0,0,0,0,1.06s.06,0,.07,0a3.21,3.21,0,0,0,.13-1.07c0-.1-.14-.1-.15,0Z"/><path class="cls-1" d="M2.69,12a9.25,9.25,0,0,0,.85-1.54,0,0,0,0,0-.07,0A7.8,7.8,0,0,0,2.6,12c0,.07,0,.12.09.06Z"/><path class="cls-1" d="M2.31,11.58A4.24,4.24,0,0,0,3.47,9.84s-.05-.07-.07,0a8,8,0,0,0-.49.79,10.16,10.16,0,0,1-.67.91c-.05.05,0,.13.07.08Z"/><path class="cls-1" d="M2.4,11a3.74,3.74,0,0,1,.49-1.12s0-.1-.08-.06a1.88,1.88,0,0,0-.56,1.14c0,.09.13.14.15,0Z"/><path class="cls-1" d="M2.05,10.53a6.21,6.21,0,0,1,.74-.95c.06-.06,0-.14-.09-.09a3.14,3.14,0,0,0-.78,1c0,.08.08.16.13.08Z"/><path class="cls-1" d="M2,10a1.78,1.78,0,0,1,.18-.43c.06-.12.15-.23.22-.36a.06.06,0,0,0-.09-.07,1.8,1.8,0,0,0-.46.82c0,.09.12.13.15,0Z"/><path class="cls-1" d="M1.75,9.66a8.79,8.79,0,0,0,.68-1.14,0,0,0,0,0-.07,0,7.6,7.6,0,0,0-.73,1.11.07.07,0,1,0,.12.07Z"/><path class="cls-1" d="M1.74,9a6.75,6.75,0,0,0,.47-.59s0-.07,0,0a6.41,6.41,0,0,0-.49.55c0,.06,0,.14.07.08Z"/><path class="cls-1" d="M1.85,8.41a.94.94,0,0,1,.25-.47s0-.08,0-.06a.81.81,0,0,0-.33.5c0,.08.11.11.12,0Z"/><path class="cls-1" d="M1.76,7.67c0-.06.07-.11.1-.16a.48.48,0,0,0,.08-.16s-.05-.06-.08,0a.55.55,0,0,0-.12.14l-.1.16c0,.07.07.14.12.07Z"/><path class="cls-1" d="M19.48,20.89a.39.39,0,0,0,.3,0A.43.43,0,0,0,20,20.7a.05.05,0,0,0-.08-.07.82.82,0,0,1-.44.21s0,0,0,.05Z"/><path class="cls-1" d="M19.51,20.83c.75-.32,1.48-.68,2.2-1.06.06,0,0-.14-.06-.11a23.18,23.18,0,0,0-2.18,1.07.05.05,0,0,0,0,.1Z"/><path class="cls-1" d="M19.4,21A21,21,0,0,0,22,19.66c.05,0,0-.08,0-.06a18.94,18.94,0,0,0-2.58,1.31s0,.1,0,.08Z"/><path class="cls-1" d="M19.87,20.76l.75-.39s0,0,0,0l-.76.39s0,0,0,0Z"/></svg>