<svg id="Layer_1" data-name="Layer 1" xmlns="http://www.w3.org/2000/svg" viewBox="0 0 30 21"><defs><style>.cls-1{fill:#57b947;}</style></defs><path class="cls-1" d="M4.77,1.81c0-.61.75-.75,1.2-.84Q6.91.79,7.86.64c1.33-.2,2.67-.36,4-.46A39.48,39.48,0,0,1,19.63.4c.07,0,.07-.11,0-.12A50.35,50.35,0,0,0,6.37.75C5.82.84,4.49,1,4.63,1.83c0,.07.15.06.14,0Z"/><path class="cls-1" d="M4.86,1.47c-.32.24-.35.7-.41,1.06a16.78,16.78,0,0,0-.21,1.7A21.08,21.08,0,0,0,4.3,7.87c0,.13.23.14.21,0a21.13,21.13,0,0,1-.1-3.18q0-.78.12-1.56c0-.29.07-.58.11-.88s0-.55.25-.74c0,0,0-.05,0,0Z"/><path class="cls-1" d="M19.48.5h.07s0,0,0,0h-.07Z"/><path class="cls-1" d="M19.55.51a.35.35,0,0,1,.16.08l.05.06s0,0,0,.06,0,0,0,0-.06-.13-.1-.17a.36.36,0,0,0-.18-.07,0,0,0,0,0,0,0Z"/><path class="cls-1" d="M19.69.49c.76.87.48,2.26.46,3.31,0,1.31-.11,2.63-.07,3.94,0,.12.18.11.19,0,.1-1.44.06-2.9.08-4.33,0-.92.22-2.31-.61-3,0,0-.08,0,0,0Z"/><path class="cls-1" d="M4.65,1.37A1.1,1.1,0,0,1,4.82,1s0-.06,0,0a.55.55,0,0,0-.21.43,0,0,0,0,0,.07,0Z"/><path class="cls-1" d="M4.57,1.37c.65-.9,1.78-1,2.8-1Q9.29.23,11.21.17c1.28,0,2.56-.05,3.84,0s2.65.1,4,.1c0,0,0-.07,0-.08C17.62,0,16.19,0,14.79,0s-2.74,0-4.11,0S8,.14,6.7.27C5.91.34,4.88.53,4.5,1.33c0,0,0,.09.07,0Z"/><path class="cls-1" d="M5.4,1.07A42.77,42.77,0,0,1,19.81.94c.06,0,.08-.07,0-.08A39.44,39.44,0,0,0,5.39,1s0,0,0,0Z"/><path class="cls-1" d="M4.43,8V7.93s0,0,0,0a.17.17,0,0,1,0,.07s0,0,0,0Z"/><path class="cls-1" d="M4.17,7.94V8s.08,0,.06,0v0a0,0,0,1,0,0,0V8s.06.07.06,0v0c0-.06-.09-.06-.08,0Z"/><path class="cls-1" d="M4.27,8.14a.52.52,0,0,1,.2.33h0a.5.5,0,0,0-.21-.34s0,0,0,0Z"/><path class="cls-1" d="M4.4,8.12a.38.38,0,0,0,.19.51s0,0,0,0a.48.48,0,0,1-.18-.46s0,0,0,0Z"/><path class="cls-1" d="M4.44,8c-.24,1.06,1.34,1.25,2,1.38a25.13,25.13,0,0,0,3.67.41,40,40,0,0,0,7.49-.52c.94-.14,2.31-.51,2.38-1.68,0-.08-.11-.09-.13,0-.26,1.09-1.31,1.39-2.3,1.54s-2.16.29-3.25.39a31.12,31.12,0,0,1-6.4-.06c-.62-.08-1.24-.18-1.85-.31S4.39,8.88,4.51,8c0,0-.06-.07-.07,0Z"/><path class="cls-1" d="M19.93,7.53a1.59,1.59,0,0,1-.27.66s0,.06.05,0A.85.85,0,0,0,20,7.53s0,0,0,0Z"/><path class="cls-1" d="M20,7.62a.12.12,0,0,1,0,.16l0,.1c0,.07,0,.13-.08.19s-.1.21-.14.31,0,.08.07,0a1.47,1.47,0,0,0,.31-.74c0-.11-.14-.26-.21-.11s0,.08.06,0Z"/><path class="cls-1" d="M9.33,10a.33.33,0,0,0,.06.47c.23.22.66.17.95.17,1,0,1.95,0,2.92,0,.48,0,1-.06,1.42-.12a1.18,1.18,0,0,0,.75-.26.38.38,0,0,0,0-.49c-.17-.21-.43-.18-.67-.16,0,0,0,.05,0,.05a1.23,1.23,0,0,1,.37.12.36.36,0,0,1,.19.13.32.32,0,0,1-.24.37,3,3,0,0,1-.73.11c-.56.06-1.12.09-1.68.11H10.21c-.32,0-1,0-.82-.46,0,0,0,0-.06,0Z"/><path class="cls-1" d="M9.42,9.78a.31.31,0,0,0-.13-.19s0,0-.06,0a.78.78,0,0,0,.1.65s0,0,0,0c0-.21,0-.41,0-.63l-.06,0a.25.25,0,0,1,.12.16s.05,0,.05,0Z"/><path class="cls-1" d="M10.54,10.53a3.1,3.1,0,0,0-1.45,1.39.08.08,0,0,0,.09.11.36.36,0,0,0,.28-.25,0,0,0,0,0,0,0l-.25.12,0,.11a4.51,4.51,0,0,1,.59-.79,7.43,7.43,0,0,1,.76-.6s0-.1,0-.08Z"/><path class="cls-1" d="M13.93,10.67a3.4,3.4,0,0,1,1.42.8c.15.14.39-.09.23-.24A3.72,3.72,0,0,0,14,10.35c-.21,0-.3.27-.09.32Z"/><path class="cls-1" d="M8.9,11.94c.39.38,1.07.29,1.57.3.81,0,1.63,0,2.44,0s1.56-.06,2.32-.17c.12,0,.31,0,.31-.21a.15.15,0,0,0-.17-.16,0,0,0,0,0,0,0c0,.18-.1.24-.27.2l-.13,0-.4,0c-.26,0-.53.05-.79.06q-.82.06-1.65.09l-1.59,0c-.49,0-1.17.1-1.58-.23,0,0-.08,0,0,0Z"/><path class="cls-1" d="M8.53,12.12h.09a.05.05,0,0,0,0-.09s-.07,0-.09,0a0,0,0,0,0,0,.05s0,0,0,0v0s0,0,0,0Z"/><path class="cls-1" d="M8.79,12.19s0,0,0,0Z"/><path class="cls-1" d="M5.38,12.49a3,3,0,0,1,.89-.06l.93,0c.66,0,1.33,0,2-.07a0,0,0,1,0,0,0c-.68,0-1.37,0-2.06,0a5.14,5.14,0,0,0-1.75.16Z"/><path class="cls-1" d="M15.37,12.05c1.32.1,2.66.09,4,.1a.06.06,0,0,0,0-.12c-1.32,0-2.66-.09-4,0,0,0,0,.06,0,.06Z"/><path class="cls-1" d="M5.39,12.41c-.5.22-.76.85-1,1.29l-.53.88a3.05,3.05,0,0,0-.5.92s0,.06.07,0a2.81,2.81,0,0,0,.51-.76l.5-.82a6,6,0,0,1,1-1.5s0-.06,0-.05Z"/><path class="cls-1" d="M19.07,12.14a9,9,0,0,1,1.61,1.2,5.37,5.37,0,0,1,.61.81,3.53,3.53,0,0,0,.43.79.08.08,0,0,0,.13,0,1.68,1.68,0,0,0-.38-.85,4.48,4.48,0,0,0-.65-.84,3.9,3.9,0,0,0-1.72-1.12,0,0,0,0,0,0,.06Z"/><path class="cls-1" d="M3.14,15.56A.27.27,0,0,0,3.2,16s.06,0,0-.06a.25.25,0,0,1,0-.35s0-.05,0,0Z"/><path class="cls-1" d="M3.27,15.55a.54.54,0,0,0-.08.82c.36.4,1.18.3,1.65.32,1.6,0,3.2.08,4.8,0,3.2,0,6.4-.26,9.58-.62l1.3-.16a2.31,2.31,0,0,0,.9-.2c.33-.2.51-.76.08-.95-.09,0-.17.08-.08.13a.34.34,0,0,1,.1.48.71.71,0,0,1-.46.28c-.32.07-.67.09-1,.13L18.24,16c-1.25.13-2.49.23-3.74.31-2.51.17-5,.23-7.55.22l-2.11,0c-.33,0-.68,0-1,0a.91.91,0,0,1-.5-.19.42.42,0,0,1,0-.68s0-.09,0-.07Z"/><path class="cls-1" d="M21.53,14.71a.56.56,0,0,1,.11.48.72.72,0,0,1-.26.36s0,.08.05.07c.44-.06.47-.75.15-1,0,0-.07,0,0,.06Z"/><path class="cls-1" d="M2.93,16.17A4.82,4.82,0,0,0,3,17.24a0,0,0,0,0,.06,0A4.23,4.23,0,0,0,3,16.17a0,0,0,0,0,0,0Z"/><path class="cls-1" d="M2.91,16.11c.08.37-.33,1,.13,1.2a2,2,0,0,0,.81.11c.41,0,.83.06,1.24.09,1.65.09,3.29.12,4.94.1,3.29,0,6.58-.27,9.86-.56a2.87,2.87,0,0,0,1.6-.42c.57-.47.17-1.12.2-1.72,0-.09-.15-.12-.16,0-.08.59.41,1.29-.22,1.7a3.89,3.89,0,0,1-1.75.35c-1.47.13-2.93.24-4.4.33a86.84,86.84,0,0,1-8.69.16c-.83,0-1.66-.07-2.49-.13l-.59-.05c-.31,0-.49-.16-.44-.48a1.38,1.38,0,0,0,0-.67s-.07,0-.06,0Z"/><path class="cls-1" d="M5.59,13.15s-.09,0-.09.09a0,0,0,0,0,0,0s.07,0,.1-.08,0-.07,0,0Z"/><path class="cls-1" d="M5.6,13.33a0,0,0,1,0,0,0s0,0,0,0Z"/><path class="cls-1" d="M5.67,13.24a9.65,9.65,0,0,0,1.52,0l1.45,0,3-.07L14.52,13,16,13a14,14,0,0,0,1.59,0s0-.06,0-.06a12.86,12.86,0,0,0-1.52,0l-1.52,0-3,0-3,.07-1.46,0a10.06,10.06,0,0,0-1.45.07s0,0,0,0Z"/><path class="cls-1" d="M15.63,13.1c1-.07,2-.09,3-.17.07,0,.07-.11,0-.1-1,.06-2,.18-3,.26,0,0,0,0,0,0Z"/><path class="cls-1" d="M5.5,13.22c-.3.57-.62,1.13-.88,1.72,0,.07.07.13.1.06.32-.56.57-1.16.85-1.74,0,0-.05-.09-.07,0Z"/><path class="cls-1" d="M18.48,13a12.75,12.75,0,0,1,2.35,1.78.08.08,0,0,0,.11-.11,10.08,10.08,0,0,0-2.42-1.73s-.08,0,0,.06Z"/><path class="cls-1" d="M4.62,14.84c2.56-.12,5.12-.27,7.69-.34l3.85-.09,1.86,0c.67,0,1.33,0,2,0,0,0,0-.07,0-.07-.66-.05-1.34,0-2,0H16.16c-1.28,0-2.56,0-3.85.07-2.56.07-5.14.18-7.69.42a0,0,0,0,0,0,.05Z"/><path class="cls-1" d="M6.44,13.36a5.83,5.83,0,0,0-.37.7,5.25,5.25,0,0,0-.31.63,0,0,0,0,0,.06,0,6.7,6.7,0,0,0,.37-.7,4.73,4.73,0,0,0,.31-.64s0-.05-.06,0Z"/><path class="cls-1" d="M7.37,13.3a9.4,9.4,0,0,1-.53,1.4,0,0,0,0,0,0,0,2.86,2.86,0,0,0,.53-1.41s0-.05,0,0Z"/><path class="cls-1" d="M8.57,13.24A14.77,14.77,0,0,0,8,14.63s.07.09.09,0c.2-.46.34-.94.5-1.42,0,0,0,0,0,0Z"/><path class="cls-1" d="M9.81,13.17a7.93,7.93,0,0,0-.34,1.27c0,.06.07.06.09,0a9.35,9.35,0,0,0,.33-1.26s-.07-.07-.08,0Z"/><path class="cls-1" d="M10.93,13.16c-.08.22-.16.45-.23.67a1.49,1.49,0,0,0-.13.61,0,0,0,0,0,0,0,2,2,0,0,0,.18-.6l.21-.67a0,0,0,1,0-.08,0Z"/><path class="cls-1" d="M12,13.11a9.09,9.09,0,0,1-.21,1.18c0,.07.07.09.1,0a3.1,3.1,0,0,0,.19-1.21,0,0,0,0,0-.08,0Z"/><path class="cls-1" d="M13.07,13.11c0,.4,0,.8,0,1.2,0,.07.11.07.11,0,0-.4,0-.8,0-1.2,0,0-.08,0-.08,0Z"/><path class="cls-1" d="M14.13,13.12a3.75,3.75,0,0,1,0,1.25s.06,0,.07,0a3.2,3.2,0,0,0,0-1.27,0,0,0,0,0,0,0Z"/><path class="cls-1" d="M15.32,13.17h0s0,0,0,0,0-.06,0-.09h-.05c-.14.09-.1.34-.1.48a2.55,2.55,0,0,0,.08.87.06.06,0,0,0,.11,0c0-.21,0-.41,0-.61v-.3a2.87,2.87,0,0,0,0-.36s0,.08.05.06Z"/><path class="cls-1" d="M16.38,13.11a2.45,2.45,0,0,0,.14,1.29s.08,0,.09,0a2.65,2.65,0,0,0-.09-.62c0-.21,0-.43-.05-.64,0-.06-.08-.06-.09,0Z"/><path class="cls-1" d="M17.32,13.12a3.56,3.56,0,0,0,.45,1.28.05.05,0,0,0,.1,0c-.12-.43-.33-.83-.47-1.26,0,0-.09,0-.08,0Z"/><path class="cls-1" d="M5.34,13.93q3.44,0,6.87-.13l3.44-.13,1.72-.08a12.12,12.12,0,0,0,1.59-.1,0,0,0,0,0,0-.06,14.13,14.13,0,0,0-1.72.06l-1.71.07-3.37.13q-3.4.11-6.81.17s0,.07,0,.07Z"/><path class="cls-1" d="M4.44,15.22l-.15.42s0,.06,0,0c2.13-.12,4.26-.29,6.4-.36,1,0,2.11-.05,3.17-.05a1.54,1.54,0,0,0,1-.18.67.67,0,0,0,.19-.66c0-.07-.12,0-.13,0a5.67,5.67,0,0,0,0,.58.05.05,0,0,0,.1,0,3.81,3.81,0,0,0,.08-.59l-.12,0c.23.31-.13.57-.4.63a3,3,0,0,1-.73,0H12.44c-.94,0-1.89,0-2.84.08s-1.84.08-2.77.14l-1.45.11-.66.06s-.27.07-.32,0,.09-.29.1-.32,0-.05-.06,0Z"/><path class="cls-1" d="M5.64,14.74a.78.78,0,0,0-.21.71s.08,0,.08,0,0-.24,0-.35a2.33,2.33,0,0,1,.14-.33s0,0-.06,0Z"/><path class="cls-1" d="M7,14.56a4.67,4.67,0,0,0-.09.74,0,0,0,0,0,.08,0A3.65,3.65,0,0,0,7,14.57s-.06-.05-.07,0Z"/><path class="cls-1" d="M8.15,14.56a2.8,2.8,0,0,0-.2.74,0,0,0,0,0,.07,0,3,3,0,0,0,.21-.74c0-.05-.07-.07-.08,0Z"/><path class="cls-1" d="M9.56,14.43a4.82,4.82,0,0,0-.18.75s0,0,.07,0a4.94,4.94,0,0,0,.17-.74s0-.06-.06,0Z"/><path class="cls-1" d="M10.63,14.37a5.14,5.14,0,0,0-.09.87,0,0,0,0,0,.07,0,6.54,6.54,0,0,0,.08-.88s-.06,0-.06,0Z"/><path class="cls-1" d="M11.7,14.37a4.43,4.43,0,0,0-.08.8,0,0,0,0,0,.06,0,5.42,5.42,0,0,0,.08-.81s-.06,0-.06,0Z"/><path class="cls-1" d="M13,14.37a3.75,3.75,0,0,0-.11.67s.07.05.08,0a3.08,3.08,0,0,0,.07-.68s0,0,0,0Z"/><path class="cls-1" d="M15.44,15.27a.58.58,0,0,0-.32,0,0,0,0,0,0,0,.05c.83,0,1.66,0,2.48,0A16.81,16.81,0,0,0,20,15.17c.06,0,0-.08,0-.09-.79,0-1.62.08-2.41.11l-1.18.06h-.85c-.1,0-.47,0-.07,0,0,0,0,0,0,0Z"/><path class="cls-1" d="M20.5,14.57a.4.4,0,0,1-.05.26,1.15,1.15,0,0,1-.14.19s0,.07.05.06a.48.48,0,0,0,.23-.52,0,0,0,0,0-.09,0Z"/><path class="cls-1" d="M4.12,15.83a.65.65,0,0,0,0,.14s0,0,0,0a.22.22,0,0,0,0-.14s0,0,0,0Z"/><path class="cls-1" d="M17.18,14.43a2.16,2.16,0,0,0,0,.44.84.84,0,0,0,.06.39,0,0,0,0,0,.08,0,1.64,1.64,0,0,0,0-.38c0-.14,0-.28,0-.43s-.09-.07-.1,0Z"/><path class="cls-1" d="M14.5,15.26h.6a0,0,0,1,0,0,0h-.6a0,0,0,0,0,0,0Z"/><path class="cls-1" d="M4.41,15.74c1.35.12,2.72.13,4.07.14s2.77,0,4.15,0,2.71-.11,4.07-.21,2.68-.18,4-.4c0,0,0,0,0,0-1.35.06-2.7.22-4.06.31s-2.71.16-4.07.2-2.72.07-4.08.06-2.71-.07-4.07-.07c0,0,0,0,0,0Z"/><path class="cls-1" d="M21,13.91a3.81,3.81,0,0,1,1.45.54,3,3,0,0,1,1.05,1.24c0,.1.2,0,.15-.09A3,3,0,0,0,21,13.87s0,0,0,0Z"/><path class="cls-1" d="M23.39,15.77a2.61,2.61,0,0,0,1.15,1.74s.08,0,.05-.06c-.22-.27-.49-.47-.69-.76a2.93,2.93,0,0,1-.39-1c0-.07-.14,0-.12,0Z"/><path class="cls-1" d="M24.41,17.48c-.25-.11-.47.14-.57.35a2.17,2.17,0,0,0,.08,1.33A2.2,2.2,0,0,0,25.3,21,1.55,1.55,0,0,0,27,20.09,2,2,0,0,0,26.64,18a2.16,2.16,0,0,0-2.53-.54s0,.09,0,.08a2.41,2.41,0,0,1,2.34.61,1.64,1.64,0,0,1,.07,2.29,1.33,1.33,0,0,1-2-.3,3.7,3.7,0,0,1-.46-1.21,3,3,0,0,1-.13-.72c0-.39.2-.51.48-.7,0,0,0,0,0,0Z"/><path class="cls-1" d="M24,17.54a6.47,6.47,0,0,1,.73.83c.26.41.43,1.21-.27,1.3a0,0,0,0,0,0,.08c.47,0,.71-.44.64-.86a2.33,2.33,0,0,0-1.06-1.4s-.07,0,0,.05Z"/><path class="cls-1" d="M24.74,17.62c0-.14.16.11.17.14L25,18c.08.18.17.35.25.53a1.38,1.38,0,0,0,.45.63.74.74,0,0,0,1-.27c0-.07-.06-.15-.11-.08a.62.62,0,0,1-1.1-.15c-.23-.41-.42-.84-.63-1.27,0-.05-.09,0-.12,0a.6.6,0,0,0-.06.23,0,0,0,0,0,0,0Z"/><path class="cls-1" d="M5.66,1.94c.53,0,1.06-.14,1.59-.17s1-.05,1.55-.06c1.07,0,2.14,0,3.21,0h3.17c1.1,0,2.2,0,3.3,0,.06,0,.06-.08,0-.09-1.1-.06-2.2,0-3.3,0H11.94c-1.07,0-2.14,0-3.21,0-.51,0-1,0-1.54.06a5.74,5.74,0,0,0-1.55.21.05.05,0,0,0,0,.1Z"/><path class="cls-1" d="M5.43,2c-.54.42-.52,1.17-.53,1.8l-.06,3A.09.09,0,1,0,5,6.8V4.16c0-.69-.12-1.64.47-2.15a0,0,0,0,0-.05,0Z"/><path class="cls-1" d="M5,7.31H4.93s0,0,0,0,.05,0,.08,0a0,0,0,0,0,0-.05Z"/><path class="cls-1" d="M18.43,1.78A2.88,2.88,0,0,1,19,1.71s0,0,0,0a1.53,1.53,0,0,0-.6.08s0,0,0,0Z"/><path class="cls-1" d="M18.22,1.77l.47,0a1.08,1.08,0,0,0,.4,0s0,0,0,0a1.35,1.35,0,0,0-.4,0l-.47,0a0,0,0,0,0,0,0Z"/><path class="cls-1" d="M18.49,1.73a1.48,1.48,0,0,1,.73.12c.3.19.21.6.2.9,0,.57,0,1.14,0,1.7s0,1.13,0,1.69-.1,1.06-.14,1.6c0,.07.09.09.12,0A4.12,4.12,0,0,0,19.6,6c0-.74,0-1.48,0-2.22,0-.35,0-.7,0-1a1.57,1.57,0,0,0-.09-.75c-.2-.31-.66-.31-1-.26,0,0,0,.05,0,.05Z"/><path class="cls-1" d="M4.85,7a3.25,3.25,0,0,0,0,.54h0A4.87,4.87,0,0,0,4.9,7a0,0,0,0,0-.05,0Z"/><path class="cls-1" d="M4.79,7.15a1.33,1.33,0,0,1,.1.28c0,.1,0,.2,0,.3s0,0,.06,0a1,1,0,0,0-.13-.62s-.07,0,0,0Z"/><path class="cls-1" d="M5,7c-.34.74.36,1.42,1,1.64a7.31,7.31,0,0,0,1.55.29c.6.07,1.19.13,1.79.17a32.75,32.75,0,0,0,7.27-.33,11.3,11.3,0,0,0,1.84-.36,1.08,1.08,0,0,0,.8-.7.06.06,0,0,0-.11,0c-.22.59-.94.67-1.48.78s-1.34.23-2,.32A33,33,0,0,1,11.8,9a33.15,33.15,0,0,1-3.86-.19C7,8.71,4.61,8.58,5,7c0,0,0,0,0,0Z"/><path class="cls-1" d="M9.22,10.1A4.5,4.5,0,0,0,10,9.7s0-.11,0-.09a4.31,4.31,0,0,0-.81.39c-.07,0,0,.13.06.1Z"/><path class="cls-1" d="M9.42,10.24c.11-.07.23-.13.34-.21s0-.1-.06-.08a3.72,3.72,0,0,0-.34.19c-.06,0,0,.14.06.1Z"/><path class="cls-1" d="M9.44,10.24c-.07,0-.07.12,0,.19h0a5,5,0,0,0,.95-.55s0,0,0,0l-.48.25-.23.12-.12.06c-.05.05-.08.05-.08,0s0-.06,0,0Z"/><path class="cls-1" d="M9.7,10.37l-.19.18s0,.07.05.06a4.91,4.91,0,0,0,.85-.51s0-.07,0,0a4.89,4.89,0,0,0-.86.49l.05.06.17-.19a0,0,0,0,0,0,0Z"/><path class="cls-1" d="M10.08,10.51s1.16-.58,1.25-.63,0-.08,0-.06c-.27.1-.54.23-.81.35s-.5.14-.51.33.3.1.17,0-.1,0-.07,0Z"/><path class="cls-1" d="M10.71,10.31a2.4,2.4,0,0,1-.26.18s0,.09,0,.07A7.18,7.18,0,0,0,11.61,10a0,0,0,0,0,0-.06,6.74,6.74,0,0,0-1.13.51l.05.06c.07-.07.16-.13.24-.2s0,0,0,0Z"/><path class="cls-1" d="M11,10.44a1.77,1.77,0,0,1-.31.15l0,.06c.47-.2.91-.43,1.38-.63,0,0,0,0,0,0a5.07,5.07,0,0,0-1.39.61s0,.08,0,.05l.31-.18s0,0,0,0Z"/><path class="cls-1" d="M11.56,10.37l-.24.21a0,0,0,0,0,0,.05c.35-.14.69-.33,1-.47,0,0,0-.05,0-.05a3.81,3.81,0,0,0-1.05.46l0,0c.08-.07.15-.15.23-.23s0,0,0,0Z"/><path class="cls-1" d="M10.06,11.24l-.24-.05v.08a5.39,5.39,0,0,0,1-.41,0,0,0,0,0,0,0,5.46,5.46,0,0,0-1,.38s0,.09,0,.08h.23s0,0,0,0Z"/><path class="cls-1" d="M9.6,11.75A9.29,9.29,0,0,1,11,11.09,0,0,0,1,0,11,11a3,3,0,0,0-1.44.63s0,.1.06.08Z"/><path class="cls-1" d="M9.44,11.83l-.2.16s0,.08,0,.06c.24-.1.46-.25.69-.36a7.89,7.89,0,0,1,.91-.37,0,0,0,0,0,0-.07A3.23,3.23,0,0,0,9.23,12l0,0,.19-.18a0,0,0,0,0,0,0Z"/><path class="cls-1" d="M9.52,12a.56.56,0,0,1-.21.06l0,.1c.71-.28,1.41-.59,2.12-.87,0,0,0-.07,0-.06a9.3,9.3,0,0,0-2.14.83s0,.13.06.09a.45.45,0,0,1,.19-.11s0,0,0,0Z"/><path class="cls-1" d="M9.39,12.33c.42-.13.82-.35,1.22-.51l1.24-.48a0,0,0,1,0,0-.05c-.45.13-.88.28-1.31.45a7.63,7.63,0,0,0-1.16.53s0,.07,0,.06Z"/><path class="cls-1" d="M10.19,12.24a2.29,2.29,0,0,1-.34.07s0,.06,0,.09c.38-.12.74-.32,1.12-.47l1.14-.4a0,0,0,0,0,0-.08,8.49,8.49,0,0,0-1.21.38,4.45,4.45,0,0,0-1.06.49,0,0,0,1,0,0,.07l.31-.11s0,0,0,0Z"/><path class="cls-1" d="M10.85,12.11l-.36.12,0,.07a12.22,12.22,0,0,0,2-.74,0,0,0,0,0,0-.05,12.25,12.25,0,0,0-2,.72c-.05,0,0,.09,0,.07l.34-.14s0-.06,0-.05Z"/><path class="cls-1" d="M11.44,12.09a2,2,0,0,1-.32.1c-.07,0,0,.12,0,.1a20,20,0,0,0,2-.78,0,0,0,0,0,0-.06,18.74,18.74,0,0,0-2,.75l.06.08.3-.14a0,0,0,0,0,0-.05Z"/><path class="cls-1" d="M12.13,12.11a9.37,9.37,0,0,0,1.25-.46s0,0,0,0L12.11,12s0,.08,0,.07Z"/><path class="cls-1" d="M13,12h.27s0,0,0,0H13a0,0,0,0,0,0,0Z"/><path class="cls-1" d="M9.05,12.22a1.89,1.89,0,0,0,.47.06c.06,0,.06-.06,0-.08a1.85,1.85,0,0,0-.47-.08c-.06,0-.09.09,0,.1Z"/><path class="cls-1" d="M4.61,1.63c.27-.1.51-.28.77-.4a6.29,6.29,0,0,1,1-.36s0-.06,0-.06a3.44,3.44,0,0,0-1.8.8s0,0,0,0Z"/><path class="cls-1" d="M4.67,1.73l-.25,0v.07c.42-.15.81-.39,1.23-.56S6.51,1,6.94.84c0,0,0-.06,0-.06a8.07,8.07,0,0,0-1.35.41,5.55,5.55,0,0,0-1.17.58s0,.08,0,.07l.25-.08s0,0,0,0Z"/><path class="cls-1" d="M4.92,1.86A9.93,9.93,0,0,0,6,1.33c.44-.2.88-.37,1.33-.53,0,0,0-.06,0-.05a7.37,7.37,0,0,0-1.28.42,3.69,3.69,0,0,0-1.16.65s0,.05,0,0Z"/><path class="cls-1" d="M4.76,2A29.31,29.31,0,0,1,7.86.77s0-.08,0-.07A11.07,11.07,0,0,0,4.72,1.92a0,0,0,0,0,0,.07Z"/><path class="cls-1" d="M5.29,2C6.74,1.54,8.19,1.12,9.6.6c0,0,0,0,0,0-1.45.39-2.88.88-4.3,1.37,0,0,0,0,0,0Z"/><path class="cls-1" d="M5.94,2c1.47-.41,2.93-.85,4.38-1.33,0,0,0,0,0,0C8.84,1,7.38,1.46,5.93,1.94c0,0,0,0,0,0Z"/><path class="cls-1" d="M7.34,1.7c1.09-.28,2.18-.58,3.25-.92,0,0,0,0,0,0-1.09.28-2.17.61-3.25.94,0,0,0,0,0,0Z"/><path class="cls-1" d="M8.32,1.6C9.39,1.29,10.48,1,11.58.81c0,0,0,0,0,0a25.73,25.73,0,0,0-3.25.81s0,0,0,0Z"/><path class="cls-1" d="M10.38,1.42c-.17,0-.35.1-.53.13h0c.18-.06.36-.1.53-.14Z"/><path class="cls-1" d="M9.59,1.55A20.79,20.79,0,0,1,12.05,1s0,0,0,0a18.79,18.79,0,0,0-2.47.56s0,0,0,0Z"/><path class="cls-1" d="M10.46,1.63a27.28,27.28,0,0,1,2.72-.55s0,0,0,0a15.85,15.85,0,0,0-2.72.57Z"/><path class="cls-1" d="M13.31,1.3s0,0,0,0,0,0,0,0Z"/><path class="cls-1" d="M4.35,2.37c.22-.09.44-.18.65-.29,0,0,0,0,0,0-.22.08-.44.18-.65.28,0,0,0,0,0,0Z"/><path class="cls-1" d="M4.51,2.65a4.15,4.15,0,0,0,.32-.27s0-.06,0,0a2.88,2.88,0,0,0-.34.27s0,.07,0,0Z"/><path class="cls-1" d="M4.29,2.85a2.24,2.24,0,0,0,.27-.13s0-.06,0-.05l-.27.14s0,0,0,0Z"/><path class="cls-1" d="M4.3,3l.33-.22s0,0,0,0A3.53,3.53,0,0,0,4.28,3s0,.06,0,0Z"/><path class="cls-1" d="M4.27,3.11A.3.3,0,0,0,4.61,3a0,0,0,1,0,0,0,.32.32,0,0,1-.31.14s0,0,0,0Z"/><path class="cls-1" d="M4.24,3.21c0,.07,0,.13.1.14s.16-.08.2-.15,0,0,0,0a.29.29,0,0,1-.11.11c-.06,0-.16,0-.14-.08s0,0,0,0Z"/><path class="cls-1" d="M4.28,3.49l.2-.06s0,0,0,0l-.2.06s0,0,0,0Z"/><path class="cls-1" d="M4.41,3.63a0,0,0,0,0,0,0,0,0,0,0,0,0,0Z"/><path class="cls-1" d="M4.5,5.84s0,0,0,0l0,0,.06-.07a.62.62,0,0,0,.14-.14s0-.06,0-.06a.35.35,0,0,0-.19.1l-.08.08a.27.27,0,0,0,0,.11s0,.08.08,0Z"/><path class="cls-1" d="M4.38,6a.89.89,0,0,0,.33-.18s0,0,0,0a.74.74,0,0,0-.34.15s0,.08,0,.07Z"/><path class="cls-1" d="M4.28,6.24A.45.45,0,0,0,4.69,6s0,0,0,0a.84.84,0,0,1-.39.19s0,.06,0,.06Z"/><path class="cls-1" d="M4.39,6.35a.41.41,0,0,0,.43-.14s0,0,0,0a.55.55,0,0,1-.39.12s0,0,0,0Z"/><path class="cls-1" d="M4.61,6.41s0,0,0,0,0,0,0,0Z"/><path class="cls-1" d="M4.34,7.16a1.61,1.61,0,0,0,.55-.35s0,0,0,0a1.49,1.49,0,0,0-.57.3s0,.09,0,.08Z"/><path class="cls-1" d="M4.52,7.05l-.11.13a0,0,0,0,0,0,.05.48.48,0,0,0,.32-.15s0,0,0,0a1.2,1.2,0,0,1-.31.13l0,0,.11-.14s0,0,0,0Z"/><path class="cls-1" d="M4.43,7.46a1.75,1.75,0,0,0,.44-.2l0,0a2,2,0,0,1-.45.41s0,.06,0,.06a.63.63,0,0,0,.43-.13s0,0,0,0-.26.08-.4.1l0,.06a2.17,2.17,0,0,1,.45-.41s0-.08,0-.07a1.79,1.79,0,0,0-.45.19c-.05,0,0,.1,0,.08Z"/><path class="cls-1" d="M4.48,8.23a.27.27,0,0,0,.12-.06.39.39,0,0,0,.1-.08,0,0,0,0,0,0-.07.49.49,0,0,0-.23.14s0,.07.05.07Z"/><path class="cls-1" d="M5,9a4.2,4.2,0,0,0,.8-.28,0,0,0,0,0,0,0A3.93,3.93,0,0,0,5,9S5,9.05,5,9Z"/><path class="cls-1" d="M5.41,9.12,5.88,9s0-.07,0-.06A3.75,3.75,0,0,0,5.4,9c-.05,0,0,.1,0,.09Z"/><path class="cls-1" d="M9.27,9.71a5,5,0,0,0,1.2-.41s0-.07,0-.06a5.45,5.45,0,0,0-1.19.43s0,.05,0,0Z"/><path class="cls-1" d="M10,9.77a3.9,3.9,0,0,0,.93-.36s0-.07,0-.06a4.59,4.59,0,0,0-.93.36,0,0,0,0,0,0,.06Z"/><path class="cls-1" d="M10.93,9.71c.4-.13.81-.25,1.2-.42,0,0,0-.08,0-.07-.4.11-.8.26-1.19.41-.05,0,0,.1,0,.08Z"/><path class="cls-1" d="M14,9.38l-.24.07v.06c.47-.15.92-.32,1.37-.5,0,0,0-.06,0,0a13.12,13.12,0,0,0-1.37.49,0,0,0,1,0,0,.05L14,9.41s0,0,0,0Z"/><path class="cls-1" d="M14.44,9.67c.45-.21.9-.42,1.34-.65,0,0,0,0,0,0-.46.2-.9.43-1.34.66,0,0,0,0,0,0Z"/><path class="cls-1" d="M15.3,9.59a12.8,12.8,0,0,1,1.81-.81,0,0,0,1,0,0,0,6.76,6.76,0,0,0-1.83.79,0,0,0,1,0,0,.07Z"/><path class="cls-1" d="M16.25,9.37c.49-.26,1-.51,1.47-.8,0,0,0-.07,0-.05-.49.24-1,.52-1.46.79,0,0,0,.07,0,.06Z"/><path class="cls-1" d="M16.9,9.34a7.87,7.87,0,0,0,1.27-.86s0,0,0,0a13.28,13.28,0,0,1-1.27.84s0,0,0,0Z"/><path class="cls-1" d="M17.64,9.09c.31-.17.63-.34.93-.54,0,0,0-.05,0,0-.32.15-.63.34-.94.52,0,0,0,.07,0,.05Z"/><path class="cls-1" d="M19.09,2.1A6.61,6.61,0,0,0,20,1.58s0-.07,0-.06a5.75,5.75,0,0,0-.94.52s0,.09,0,.06Z"/><path class="cls-1" d="M19.29,1.72a2.31,2.31,0,0,0,.54-.28s0-.06,0-.05a2.31,2.31,0,0,0-.55.26s0,.09,0,.07Z"/><path class="cls-1" d="M18.83,1.78a5.89,5.89,0,0,0,.55-.38s0-.07,0,0a4,4,0,0,0-.56.35c-.05,0,0,.11,0,.08Z"/><path class="cls-1" d="M18.77,1.45l.2-.14s0-.05,0,0a1.32,1.32,0,0,0-.2.12s0,.09,0,.06Z"/><path class="cls-1" d="M19.57,3a2.85,2.85,0,0,0,.32-.27s0-.05,0,0a2.27,2.27,0,0,0-.35.26s0,.08.05.05Z"/><path class="cls-1" d="M19.75,3s0,0,0,0,0,0,0,0Z"/><path class="cls-1" d="M3,16.85c.08-.08.14-.18.22-.26a3.15,3.15,0,0,1,.29-.22s0,0,0,0a.8.8,0,0,0-.55.49s0,0,0,0Z"/><path class="cls-1" d="M2.91,17.07a3.88,3.88,0,0,0,.65-.5s0-.05,0,0a3.26,3.26,0,0,0-.66.46s0,.12.05.08Z"/><path class="cls-1" d="M3,17.18a6.91,6.91,0,0,0,.86-.54,0,0,0,1,0,0,0,5.88,5.88,0,0,0-.87.52s0,.09,0,.06Z"/><path class="cls-1" d="M3.17,17.2a11.15,11.15,0,0,0,1.18-.63s0,0,0,0a12.21,12.21,0,0,0-1.2.6s0,.08,0,.06Z"/><path class="cls-1" d="M3.59,17.07c-.09.08.06.14.13.13a1,1,0,0,0,.35-.2,2.64,2.64,0,0,0,.35-.23s0-.06,0-.05a3.84,3.84,0,0,0-.39.22l-.17.1-.1.07H3.63s0-.08,0-.05Z"/><path class="cls-1" d="M3.88,17.21A1.14,1.14,0,0,0,4.49,17s0-.06,0,0a1.52,1.52,0,0,1-.58.19s0,.09,0,.08Z"/><path class="cls-1" d="M10.18,17.34s-.12.05-.1.09a0,0,0,0,0,0,0c.06,0,.14-.06.19-.09a1.92,1.92,0,0,0,.31-.18s0-.05,0,0l-.25.15c-.05,0-.15.12-.22.11l0,0s.07,0,.08,0,0-.05,0,0Z"/><path class="cls-1" d="M10.54,17.53c.61-.35,1.25-.64,1.86-1,0,0,0-.06,0-.05a7.86,7.86,0,0,0-1.89,1s0,.11,0,.08Z"/><path class="cls-1" d="M11.25,17.39a8.85,8.85,0,0,0,1.48-.73s0-.08,0-.07a8.43,8.43,0,0,0-1.48.72s0,.09,0,.08Z"/><path class="cls-1" d="M12.09,17.07l-.41.33s0,.09,0,.07a10,10,0,0,0,1.2-.55s0-.06,0-.05a13,13,0,0,0-1.21.52l.05.07.39-.35s0-.06,0,0Z"/><path class="cls-1" d="M14.52,17.21c.63-.23,1.26-.5,1.87-.79,0,0,0-.09,0-.07a18.08,18.08,0,0,0-1.88.77c-.05,0,0,.11,0,.09Z"/><path class="cls-1" d="M15.38,17.25a19.61,19.61,0,0,0,1.86-1s0,0,0,0a18.46,18.46,0,0,0-1.88,1c-.05,0,0,.1,0,.07Z"/><path class="cls-1" d="M16.08,17.08l-.15.13s0,.06,0,0a13.93,13.93,0,0,0,1.34-.8,0,0,0,1,0,0-.06,12.74,12.74,0,0,0-1.33.81l0,.05.15-.13s0-.05,0,0Z"/><path class="cls-1" d="M17.77,17.07a6.3,6.3,0,0,0,1.69-.92s0-.08-.05-.06c-.56.3-1.1.62-1.67.9,0,0,0,.09,0,.08Z"/><path class="cls-1" d="M18.24,17.13c.54-.3,1.07-.62,1.59-.95,0,0,0,0,0,0-.54.29-1.08.59-1.6.92,0,0,0,.06,0,.05Z"/><path class="cls-1" d="M18.9,17.05l1.52-1s0,0,0,0c-.52.33-1,.67-1.52,1a0,0,0,1,0,0,0Z"/><path class="cls-1" d="M19.44,17A13.4,13.4,0,0,0,21.18,16s0-.07,0-.05a13.37,13.37,0,0,0-1.75,1,0,0,0,0,0,0,.07Z"/><path class="cls-1" d="M20.17,16.87a6.15,6.15,0,0,0,1.11-.71s0-.06,0-.05a5.93,5.93,0,0,0-1.13.7s0,.07.05.06Z"/><path class="cls-1" d="M20.62,16.84l.4-.2s0,0,0,0l-.39.2s0,0,0,0Z"/><path class="cls-1" d="M23.94,18.23v-.07s0,0,0,0v.07Z"/><path class="cls-1" d="M23.94,18.23V18s0,0,0,0a.75.75,0,0,0-.07.39s0,0,0,0a1.22,1.22,0,0,1,.07-.38h0v.25Z"/><path class="cls-1" d="M24.05,18c-.08.18-.18.36-.26.54,0,0,0,0,0,0,.1-.18.17-.36.26-.54,0,0,0,0,0,0Z"/><path class="cls-1" d="M24.33,17.89c-.15.25-.32.49-.45.74,0,0,0,0,0,0,.16-.24.31-.49.46-.74,0,0,0,0,0,0Z"/><path class="cls-1" d="M24.32,18a1.9,1.9,0,0,0-.4.61,0,0,0,0,0,0,0,2.38,2.38,0,0,1,.39-.6s0,0,0,0Z"/><path class="cls-1" d="M23.75,18.44a3.87,3.87,0,0,0,.53-.61s0,0-.05,0a5,5,0,0,0-.54.58,0,0,0,0,0,.06.06Z"/><path class="cls-1" d="M23.81,18.64a2.08,2.08,0,0,0,.43-.51,0,0,0,0,0,0,0,2.27,2.27,0,0,0-.46.47c0,.05,0,.11.06.07Z"/><path class="cls-1" d="M23.89,18.78l.29-.3a1.18,1.18,0,0,0,.25-.3s0-.05,0,0a1.16,1.16,0,0,0-.28.26l-.28.32a0,0,0,0,0,.06.06Z"/><path class="cls-1" d="M23.94,19c.13-.13.25-.26.37-.4a2.38,2.38,0,0,0,.31-.4s0-.05,0,0a2.33,2.33,0,0,0-.34.36c-.12.14-.23.29-.34.43s0,.07,0,0Z"/><path class="cls-1" d="M24,19.29a2.09,2.09,0,0,1,.33-.45c.13-.13.27-.22.4-.35s0,0,0,0a1.58,1.58,0,0,0-.75.8s0,.05,0,0Z"/><path class="cls-1" d="M24,19.43l.42-.41c.14-.14.3-.26.43-.4s0,0,0,0a3.89,3.89,0,0,0-.86.81s0,0,0,0Z"/><path class="cls-1" d="M24.08,19.63c.31-.25.64-.49.93-.77l-.06,0a.56.56,0,0,1-.16.25s0,0,0,0a.61.61,0,0,0,.21-.24s0-.06,0,0a11.59,11.59,0,0,0-.92.79s0,0,0,0Z"/><path class="cls-1" d="M24.32,19.54l-.25.24a0,0,0,1,0,0,0,2.09,2.09,0,0,0,.29-.23,2,2,0,0,0,.3-.28s0-.08-.05-.06a2.48,2.48,0,0,0-.3.25,1.92,1.92,0,0,0-.28.29l0,0,.24-.26s0,0,0,0Z"/><path class="cls-1" d="M24.41,20.12a2.68,2.68,0,0,0,.88-.54s0-.06,0,0a2.6,2.6,0,0,0-.89.53s0,.07,0,.06Z"/><path class="cls-1" d="M24.61,20.32a5.22,5.22,0,0,0,.54-.38,3.38,3.38,0,0,0,.46-.37,0,0,0,0,0,0-.05,4.62,4.62,0,0,0-.55.35,5.32,5.32,0,0,0-.47.36c-.05,0,0,.12.06.09Z"/><path class="cls-1" d="M24.8,20.29h0s0,0,0,0-.08.16,0,.16.25-.14.35-.2a3.69,3.69,0,0,0,.4-.29s0-.07-.05-.06a6,6,0,0,1-.74.47,0,0,0,0,0,.06-.06Z"/><path class="cls-1" d="M25,20.48a1.78,1.78,0,0,0,.8-.51s0-.06,0,0a4,4,0,0,1-.79.49s0,.07,0,.06Z"/><path class="cls-1" d="M25.15,20.59c.24-.12.48-.23.71-.37,0,0,0,0,0,0l-.72.35s0,.07,0,.05Z"/><path class="cls-1" d="M25.52,20.51a.33.33,0,0,0,.36-.15s0,0,0,0a.29.29,0,0,1-.31.11s-.06.05,0,.06Z"/><path class="cls-1" d="M25.93,20.58H26s0,0,0,0h-.07a0,0,0,1,0,0,.06Z"/><path class="cls-1" d="M26.32,20.44a0,0,0,0,0,0-.05s0,.05,0,.05Z"/><path class="cls-1" d="M10.62,5.81c-1.09-.48-.71-1.81.07-2.38a2.36,2.36,0,0,1,2.44-.21,1.59,1.59,0,0,1,.42,2.43c-.39.54-1,1-1.07,1.69,0,.07.12.09.13,0,.12-.85,1-1.26,1.31-2a1.66,1.66,0,0,0-.25-2,2.47,2.47,0,0,0-3.77.66,1.28,1.28,0,0,0,.67,1.88c.07,0,.13-.1,0-.13Z"/><path class="cls-1" d="M10.36,5.9a2.1,2.1,0,0,1,.57.58,1.58,1.58,0,0,1,.18.85c0,.1.15.1.15,0a1.47,1.47,0,0,0-.87-1.47s0,0,0,0Z"/><path class="cls-1" d="M11,7.34c-.26,0-.19.31,0,.39a2.22,2.22,0,0,0,.85.08,5.2,5.2,0,0,0,1-.12.07.07,0,0,0,.05-.08c-.06-.19-.25-.31-.42-.19s0,.09,0,.08a.25.25,0,0,1,.27.14l.05-.08a5.25,5.25,0,0,1-1,.12,2.29,2.29,0,0,1-.37,0l-.24,0c-.16,0-.25-.06-.29-.23a0,0,0,0,0,0-.09Z"/><path class="cls-1" d="M10.93,7.86l-.09-.14a.07.07,0,0,0-.13,0c0,.16,0,.46.09.6s.31.11.44.13A3.26,3.26,0,0,0,13,8.31s0-.06,0-.06c-.42,0-.82.12-1.24.12a2.15,2.15,0,0,1-.67-.07c-.22-.09-.19-.36-.22-.56l-.1.07.15.08a0,0,0,0,0,0,0Z"/><path class="cls-1" d="M12.92,7.59c0,.12,0,.24,0,.36a1.13,1.13,0,0,0,0,.32s.05,0,.06,0A.73.73,0,0,0,13,8,2.08,2.08,0,0,0,13,7.59a0,0,0,0,0-.06,0Z"/><path class="cls-1" d="M10.72,7.6Z"/><path class="cls-1" d="M10.72,7.64a0,0,0,0,0,0-.08,0,0,0,0,0,0,.08Z"/><path class="cls-1" d="M10.69,7.66a.56.56,0,0,0-.66.1s0,.08,0,.1.39.15.48,0,0-.1-.07-.09-.19.09-.3,0v.1a.58.58,0,0,1,.51-.1c.06,0,.1-.07,0-.1Z"/><path class="cls-1" d="M12.65,7.83l.55-.16.1,0c.21,0,.16.16,0,.2a.76.76,0,0,1-.3,0c-.05,0-.07.07,0,.09a.38.38,0,0,0,.4,0,.23.23,0,0,0,.08-.27c0-.09-.13-.1-.21-.08s-.44.13-.65.2a0,0,0,0,0,0,0Z"/><path class="cls-1" d="M11.45,7.6Z"/><path class="cls-1" d="M11.51,7.66a4.45,4.45,0,0,0-.09-1.25c-.05-.46-.07-.92-.09-1.38a.1.1,0,0,0-.2,0c-.5-.13-.45-.18.13-.15-.18-.2-.14-.33.11-.38.12.24.2.28.25.12s.35-.26.66.07h0a.28.28,0,0,0-.24-.44c-.34,0-.49.36-.58.61v0c.32.12.43-.52-.06-.47-.18,0-.46.2-.41.42a.2.2,0,0,0,.31.12v0a.34.34,0,0,0-.67,0,.34.34,0,0,0,.65.15l-.19,0a9.86,9.86,0,0,0,.08,1.44,2.77,2.77,0,0,0,.27,1.19Z"/><path class="cls-1" d="M12.11,4.81c.09-.17.57-.74.67-.29a.3.3,0,0,1-.06.24s-.12.16-.15.14,0-.17,0-.2a.21.21,0,0,1,.34.17h0c0-.16-.11-.34-.28-.29a.25.25,0,0,0-.14.36h0c.12-.14.38-.43.13-.59s-.53.28-.61.44c0,0,0,0,0,0Z"/><path class="cls-1" d="M12.72,5.14c.07,0,0-.12,0-.07s0,0,0,0,0,0,0,0h0s0,0,0,0Z"/><path class="cls-1" d="M12.44,4.59a.13.13,0,0,1-.16-.06v0c.05-.06.07-.13.16-.15a.24.24,0,0,1,.24.06.25.25,0,0,1,0,.3.63.63,0,0,1-.26.22s0,.06,0,.06c.36,0,.58-.6.19-.74a.37.37,0,0,0-.41.1c-.11.15.08.25.22.19a0,0,0,0,0,0,0Z"/><path class="cls-1" d="M12.59,4.94s-.13,1.29-.14,1.41a3.72,3.72,0,0,1-.39,1.42.06.06,0,0,0,.1.06,2.87,2.87,0,0,0,.44-1.54q.06-.51.09-1c0-.13.06-.32-.09-.39h0s0,0,0,.08,0,0,0,0h0s0,0,0,0Z"/><path class="cls-1" d="M10.69,8.52a.61.61,0,0,0,0,.13,1,1,0,0,0,0,.17.9.9,0,0,0,.07.27c0,.06.11,0,.1,0a1.53,1.53,0,0,1-.07-.29V8.65s0-.08,0-.12-.06,0-.06,0Z"/><path class="cls-1" d="M12.63,8.41a1.2,1.2,0,0,1,0,.33c0,.1,0,.2,0,.3s.1.08.13,0a.35.35,0,0,0,0-.2h0a.14.14,0,0,1-.09.12l.1.08c0-.11,0-.21,0-.32s0-.24,0-.35-.14-.07-.11,0Z"/><path class="cls-1" d="M10.8,8.51a.15.15,0,0,1,0-.19l-.12,0c0,.21,0,.41-.05.61s0,.26.05.32.21-.08.11-.13a0,0,0,0,0,0,0,1,1,0,0,1,0-.39l0-.44c0-.07-.11-.09-.13,0a.32.32,0,0,0,.1.29s.05,0,0,0Z"/><path class="cls-1" d="M12.61,8.4l.11-.08-.06-.05a4.73,4.73,0,0,0,0,.53,1.23,1.23,0,0,0,0,.47s.05,0,.06,0a1.23,1.23,0,0,0,0-.47,4.78,4.78,0,0,0,0-.53s0,0-.07,0a.2.2,0,0,0-.13.16s0,0,.06,0Z"/><path class="cls-1" d="M12.93,8.21s0,.26,0,.29a1.48,1.48,0,0,0,0,.21.72.72,0,0,0,0,.36h0A.77.77,0,0,0,13,8.64a1,1,0,0,0,0-.43c0-.09-.17-.1-.17,0l0,0h0s.06,0,0-.07Z"/><path class="cls-1" d="M10.79,8.11a1.72,1.72,0,0,0,.81-.06s0-.08,0-.07a4.32,4.32,0,0,1-.8,0c-.07,0-.06.09,0,.1Z"/><path class="cls-1" d="M10.85,8.06a2,2,0,0,0,1.27,0s0,0,0,0A5.23,5.23,0,0,1,10.87,8s-.06,0,0,.07Z"/><path class="cls-1" d="M10.64,8.75a2.75,2.75,0,0,0,1.21.06s0,0,0,0c-.4,0-.8-.07-1.2-.09a0,0,0,0,0,0,.06Z"/><path class="cls-1" d="M11.74,5.48V5.3h-.08a10,10,0,0,1-.22,2.5s0,0,0,0a4.74,4.74,0,0,0,.28-2.5,0,0,0,1,0-.08,0l0,.17s.05,0,.05,0Z"/><path class="cls-1" d="M11.9,5.27a10.72,10.72,0,0,1-.13,2.53,0,0,0,0,0,.05,0A5.64,5.64,0,0,0,12,5.26s-.08,0-.07,0Z"/><path class="cls-1" d="M8.87,7a6.08,6.08,0,0,0,1.19-.29s0-.09,0-.08a6.18,6.18,0,0,0-1.2.29,0,0,0,0,0,0,.08Z"/><path class="cls-1" d="M8.93,6.31a2.57,2.57,0,0,0,.67-.09,0,0,0,0,0,0,0,3,3,0,0,0-.67.08s0,.06,0,.06Z"/><path class="cls-1" d="M8.06,5.3a8.17,8.17,0,0,0,1.4,0,0,0,0,1,0,0,0,8.17,8.17,0,0,0-1.4,0,0,0,0,0,0,0,0Z"/><path class="cls-1" d="M8.65,4.79a2.55,2.55,0,0,0,.61.08s0,0,0,0a2.09,2.09,0,0,0-.61-.08s0,0,0,0Z"/><path class="cls-1" d="M8.52,3.23c.21.14.43.25.64.38a3.33,3.33,0,0,0,.58.33,0,0,0,0,0,0,0,2.36,2.36,0,0,0-.59-.4,5.46,5.46,0,0,0-.64-.32s0,0,0,.06Z"/><path class="cls-1" d="M9.5,3.11l.24.21a.83.83,0,0,0,.23.19s.07,0,0,0a1,1,0,0,0-.21-.2l-.25-.21s-.1,0-.06.06Z"/><path class="cls-1" d="M10.28,1.9A5.69,5.69,0,0,1,10.55,3c0,.06.11,0,.1,0a3.65,3.65,0,0,0-.31-1.07s-.07,0-.06,0Z"/><path class="cls-1" d="M11.08,2.34a.4.4,0,0,0,.08.37s.06,0,0,0a.45.45,0,0,1,0-.3,0,0,0,0,0-.08,0Z"/><path class="cls-1" d="M11.91,2c0,.12,0,.24,0,.37s0,.24,0,.37.06,0,.07,0a1.28,1.28,0,0,0,0-.75s-.06,0-.06,0Z"/><path class="cls-1" d="M12.87,2.26c-.06.12-.14.34,0,.45s0,0,0,0a.45.45,0,0,0,0-.16.59.59,0,0,1,0-.23c0-.05,0-.1-.08-.05Z"/><path class="cls-1" d="M14.27,1.81A3.21,3.21,0,0,0,13.61,3s0,.05.06,0a5.7,5.7,0,0,0,.32-.6c.1-.2.22-.4.34-.59s0-.07-.06,0Z"/><path class="cls-1" d="M14.31,3.15a.79.79,0,0,0-.31.43s0,.07.08,0l.29-.25a2,2,0,0,0,.25-.25A.06.06,0,0,0,14.55,3a1.55,1.55,0,0,0-.27.24L14,3.56l.08,0a.6.6,0,0,1,.24-.4s0-.06,0,0Z"/><path class="cls-1" d="M14.45,4a8.59,8.59,0,0,0,1.66-.42s0-.05,0,0c-.55.12-1.1.28-1.66.39,0,0,0,.07,0,.07Z"/><path class="cls-1" d="M14.57,4.5a3.27,3.27,0,0,0,.94-.11,0,0,0,0,0,0-.08,3.84,3.84,0,0,0-.94.15s0,0,0,0Z"/><path class="cls-1" d="M14.43,5c.69.1,1.38.29,2.07.36,0,0,0,0,0,0A7.29,7.29,0,0,0,14.44,5a0,0,0,0,0,0,.07Z"/><path class="cls-1" d="M14.5,5.57a3.16,3.16,0,0,0,.59.2,0,0,0,0,0,0-.06,4.27,4.27,0,0,0-.6-.21s-.06,0,0,.07Z"/><path class="cls-1" d="M14,6.18a2.94,2.94,0,0,1,1.56.87s.09,0,.06,0A2.2,2.2,0,0,0,14,6.06c-.06,0-.08.11,0,.12Z"/><path class="cls-1" d="M13.69,6.5a3.06,3.06,0,0,0,.61.4,0,0,0,0,0,0-.05,3.59,3.59,0,0,0-.6-.42,0,0,0,1,0,0,.07Z"/><path class="cls-1" d="M13.21,6.84a1.31,1.31,0,0,1,.19.27,1.05,1.05,0,0,0,.13.26s.08,0,.09,0A.55.55,0,0,0,13.51,7a1.49,1.49,0,0,0-.23-.27s-.12,0-.07.08Z"/><path class="cls-1" d="M15.23,11.51a.22.22,0,0,1,.1.2c0,.08-.05.12-.08.18a0,0,0,0,0,0,.06c.12,0,.16-.16.16-.26a.29.29,0,0,0-.19-.25s-.07.05,0,.07Z"/><path class="cls-1" d="M9.7,10.75a2.15,2.15,0,0,0-.88,1,0,0,0,0,0,0,0c.14-.14.25-.31.39-.46a4,4,0,0,1,.49-.43c.05,0,0-.12-.05-.09Z"/><path class="cls-1" d="M9.83,10.84a1.74,1.74,0,0,0-1,1.07s0,.06.06,0,.24-.38.4-.55a3.6,3.6,0,0,1,.58-.45s0-.12,0-.1Z"/><path class="cls-1" d="M10.16,10.91c-.05-.22-.32,0-.42.05a3.2,3.2,0,0,0-.83,1L9,12a2.37,2.37,0,0,1,.53-.76,1.81,1.81,0,0,1,.8-.47.41.41,0,0,0-.05-.09,2.11,2.11,0,0,1-.45.28,1.33,1.33,0,0,1-.48.23l.06.08a1.3,1.3,0,0,1,.81-.51l-.06-.09a1.08,1.08,0,0,1-.73.35.24.24,0,0,0,0,.08,3.1,3.1,0,0,0,.57-.3s0,0,0,0a2.87,2.87,0,0,0-.6.26s0,.09,0,.07a5.53,5.53,0,0,0,.79-.34s0-.12,0-.11a1.28,1.28,0,0,0-.89.57s.05.11.09.06A1.48,1.48,0,0,1,9.83,11a2.35,2.35,0,0,1,.48-.23s0-.1,0-.1c-.69.05-1,.81-1.39,1.28,0,0,0,.09.07.05s1-1.28,1.11-1.05c0,0,.08,0,.07,0Z"/><path class="cls-1" d="M9.93,10.8A2.07,2.07,0,0,0,8.6,12.17c0,.06.07.07.09,0a2.46,2.46,0,0,1,1.24-1.37s0,0,0,0Z"/><path class="cls-1" d="M9,11.36a1.13,1.13,0,0,0-.42.89,0,0,0,0,0,.07,0,1.59,1.59,0,0,1,.39-.85,0,0,0,0,0,0-.05Z"/><path class="cls-1" d="M8.86,11.73a.71.71,0,0,0-.29.28.51.51,0,0,0,0,.38s.05,0,0,0a.7.7,0,0,1,.31-.62,0,0,0,1,0,0,0Z"/><path class="cls-1" d="M8.7,12.1a.12.12,0,0,0,.05.18.2.2,0,0,0,.11,0,.1.1,0,0,0,.07-.08,0,0,0,0,0,0,0l0,0,0,0s-.06,0,0-.07,0-.08-.06,0Z"/><path class="cls-1" d="M8.7,12.18a.17.17,0,0,0,.16.23,0,0,0,0,0,0-.06.13.13,0,0,1-.11-.16s0-.06-.06,0Z"/><path class="cls-1" d="M8.78,12.21l-.25.08a0,0,0,0,0,0,.09.62.62,0,0,0,.62,0s0-.07,0-.06a1,1,0,0,1-.56,0v.09l.24-.1a0,0,0,0,0,0-.07Z"/><path class="cls-1" d="M8.86,12.21H8.61a.06.06,0,0,0,0,.1.52.52,0,0,0,.57.09,0,0,0,0,0,0-.06.64.64,0,0,1-.48-.11l0,.09.25,0c.05,0,.05-.08,0-.08Z"/><path class="cls-1" d="M9.11,12.13l-.5.07c-.07,0,0,.1,0,.12a.59.59,0,0,0,.47,0c.05,0,0-.08,0-.08a1.94,1.94,0,0,1-.42-.07v.12l.49-.13s0-.07,0-.06Z"/><path class="cls-1" d="M9,12.15a.64.64,0,0,0-.33-.08c-.08,0-.08.09,0,.11a1.17,1.17,0,0,0,.74,0,0,0,0,0,0,0-.07c-.24,0-.46,0-.7-.07l0,.11a.26.26,0,0,1,.27,0s.06,0,0,0Z"/><path class="cls-1" d="M9.12,12.15H8.81c-.08,0-.08.1,0,.12a.79.79,0,0,0,.48,0,0,0,0,0,0,0-.09,1.09,1.09,0,0,1-.44-.06v.12l.3,0c.05,0,.05-.07,0-.07Z"/><path class="cls-1" d="M8.78,12.21a1.33,1.33,0,0,0,.48.07s.06,0,0-.07a1.65,1.65,0,0,0-.48-.1c-.06,0-.07.09,0,.1Z"/><path class="cls-1" d="M8.62,12.22a.47.47,0,0,0,.45.13s0-.07,0-.07a1,1,0,0,1-.38-.13,0,0,0,0,0-.06.07Z"/><path class="cls-1" d="M8.67,12.1c-.08-.1-.21,0-.14.13s.16.1.23.12a.7.7,0,0,0,.38,0s0-.09,0-.1-.39,0-.52-.11c0,0,.1,0,.07-.05Z"/><path class="cls-1" d="M8.72,12.3v0s0,0,0,0-.06,0-.11,0,0,0,0,0c.09.2.44.2.62.23a4.5,4.5,0,0,0,1,0s0,0,0,0-1.55-.06-1.53-.21c0,0,.05.06.06,0Z"/><path class="cls-1" d="M9,12.37c-.06,0-.1,0-.07.11s.51.06.6.06c.87,0,1.75-.06,2.62-.12h0l-1.6.05-.76,0H9.18a.15.15,0,0,1-.21-.1s0,0,0,0Z"/><path class="cls-1" d="M9.72,12.54c.85,0,1.69,0,2.53-.09a15.87,15.87,0,0,0,2.39-.24s0-.07,0-.07c-.82,0-1.64.18-2.46.24s-1.64.11-2.46.14c0,0,0,0,0,0Z"/><path class="cls-1" d="M9.72,12.52c.9,0,1.8,0,2.69,0A24.09,24.09,0,0,0,15,12.33s0,0,0,0c-.88,0-1.75.1-2.62.14l-2.63.07s0,0,0,0Z"/><path class="cls-1" d="M11.12,12.46a20.47,20.47,0,0,0,4-.22,0,0,0,0,0,0,0c-1.33.07-2.66.2-4,.22,0,0,0,0,0,0Z"/><path class="cls-1" d="M15,11.92a.12.12,0,0,1,.05.12c0,.06,0,.08-.06.12s0,0,0,0a.16.16,0,0,0,.09-.15.21.21,0,0,0-.08-.16s-.05,0,0,0Z"/><path class="cls-1" d="M15.14,11.66a.52.52,0,0,1-.07.68s0,.07,0,.06c.29-.14.26-.57.09-.78,0,0-.08,0-.06,0Z"/><path class="cls-1" d="M15.32,11.45c0,.16,0,.31,0,.47s-.09.29-.11.45.07.1.1,0a1.47,1.47,0,0,0,.13-1c0-.06-.09,0-.09,0Z"/><path class="cls-1" d="M15.44,11.47a.77.77,0,0,1-.17.71,1,1,0,0,1-.58.3.05.05,0,0,0,0,.1.71.71,0,0,0,.7-.31.84.84,0,0,0,.14-.82c0-.06-.11,0-.09,0Z"/></svg>