<?xml version="1.0" encoding="UTF-8" standalone="no"?>
<!DOCTYPE svg PUBLIC "-//W3C//DTD SVG 1.1//EN" "http://www.w3.org/Graphics/SVG/1.1/DTD/svg11.dtd">
<svg width="100%" height="100%" viewBox="0 0 3508 2481" version="1.1" xmlns="http://www.w3.org/2000/svg" xmlns:xlink="http://www.w3.org/1999/xlink" xml:space="preserve" xmlns:serif="http://www.serif.com/" style="fill-rule:evenodd;clip-rule:evenodd;stroke-linejoin:round;stroke-miterlimit:2;">
    <g transform="matrix(1,0,0,1,-81.0311,0)">
        <path d="M1629.17,776.469L1815.47,542.212C1815.47,542.212 1938.1,421.729 2087.8,499.765C2087.8,499.765 2263.03,579.314 2406.19,790.468C2406.19,790.468 2518.14,940.757 2404.81,1087.94L2185.3,1309.8C2176.3,1416.26 2133.58,1513.15 2067.87,1589.72C2008.05,1448.56 1818.09,1093.93 1360.24,900.187C1433.41,834.072 1526.4,789.495 1629.17,776.469ZM2164.79,1120.48C2217.18,1116.73 2291.43,1010.99 2291.43,1010.99C2375.54,885.746 2082.46,668.622 2082.46,668.622C1948.78,586.84 1907.63,643.065 1907.63,643.065C1805.99,719.042 1794.25,762.15 1801.9,784.801C1974.36,823.977 2112.74,953.284 2164.79,1120.48Z" style="fill:rgb(40,37,36);"/>
        <g transform="matrix(0.620707,0,0,0.620707,437.219,421.204)">
            <path d="M1398.13,875.428C1457.72,932.5 1525.91,1045.49 1437.71,1228.93C1437.71,1228.93 2175.33,1541.87 2522.19,1977.94C2389.97,2075.42 2226.55,2133.04 2049.78,2133.04C1609.52,2133.04 1252.08,1775.6 1252.08,1335.34C1252.08,1164.12 1306.14,1005.43 1398.13,875.428Z" style="fill:rgb(58,206,53);"/>
        </g>
    </g>
    <g transform="matrix(4.63223,0,0,4.63223,-5232.2,-5578.81)">
        <text x="1357.15px" y="1640.69px" style="font-family:'YuGothicUI-Light', 'Yu Gothic UI', sans-serif;font-weight:300;font-size:50px;fill:rgb(35,31,32);"><tspan x="1357.15px 1391.48px 1416.98px 1448.93px 1467.84px 1493.9px 1528.24px 1542.43px 1573.99px 1597.39px 1630.29px " y="1640.69px 1640.69px 1640.69px 1640.69px 1640.69px 1640.69px 1640.69px 1640.69px 1640.69px 1640.69px 1640.69px ">HEALTH CLUB</tspan></text>
    </g>
</svg>
